<svg width="3085" height="364" viewBox="0 0 3085 364" fill="none" xmlns="http://www.w3.org/2000/svg">
<path d="M2924.39 364C2911 364 2900.16 353.507 2900.16 340.563V23.4361C2900.16 10.4927 2911 0 2924.39 0C2937.77 0 2948.61 10.4927 2948.61 23.4368V340.564C2948.61 353.507 2937.77 364 2924.39 364Z" fill="#FF4B22"/>
<path d="M2948.61 23.4368C2948.61 10.4927 2937.77 0 2924.39 0C2920.28 0 2916.42 0.991047 2913.03 2.73355C2920.68 6.67144 2925.9 14.4633 2925.9 23.4361V340.563C2925.9 349.535 2920.68 357.327 2913.03 361.266C2916.42 363.008 2920.28 363.999 2924.39 363.999C2937.77 363.999 2948.61 353.507 2948.61 340.563V23.4368Z" fill="#EF4722"/>
<path d="M2900.16 48.7227H2948.61V105.355H2900.16V48.7227Z" fill="#FFD740"/>
<path d="M2925.9 48.7227H2948.61V105.355H2925.9V48.7227Z" fill="#FFC400"/>
<path d="M2900.16 276.571H2948.61V333.204H2900.16V276.571Z" fill="#4DD0E1"/>
<path d="M2925.9 276.571H2948.61V333.204H2925.9V276.571Z" fill="#26C6DA"/>
<path d="M2924.56 234.174H2924.21C2910.98 234.174 2900.16 223.703 2900.16 210.905V171.021C2900.16 158.223 2910.98 147.752 2924.21 147.752H2924.56C2937.79 147.752 2948.61 158.223 2948.61 171.021V210.905C2948.61 223.704 2937.79 234.174 2924.56 234.174Z" fill="#5788A1"/>
<path d="M2924.39 234.175C2937.77 234.175 2948.61 223.682 2948.61 210.738C2948.61 197.794 2937.77 187.301 2924.39 187.301C2911.01 187.301 2900.16 197.794 2900.16 210.738C2900.16 223.682 2911.01 234.175 2924.39 234.175Z" fill="#4A758A"/>
<path d="M2950.07 195.886H2898.71C2897.42 195.886 2896.37 194.875 2896.37 193.627V176.172C2896.37 174.925 2897.42 173.914 2898.71 173.914H2950.07C2951.35 173.914 2952.4 174.925 2952.4 176.172V193.627C2952.4 194.875 2951.35 195.886 2950.07 195.886Z" fill="#5C91AB"/>
<path d="M2950.07 173.915H2927.35C2928.64 173.915 2929.69 174.925 2929.69 176.173V193.628C2929.69 194.876 2928.64 195.887 2927.35 195.887H2950.07C2951.35 195.887 2952.4 194.876 2952.4 193.628V176.173C2952.4 174.925 2951.35 173.915 2950.07 173.915Z" fill="#5788A1"/>
<path d="M3001.61 364C2988.23 364 2977.38 353.507 2977.38 340.563V23.4368C2977.38 10.4927 2988.23 0 3001.61 0C3014.99 0 3025.84 10.4927 3025.84 23.4368V340.564C3025.84 353.507 3014.99 364 3001.61 364Z" fill="#FF4B22"/>
<path d="M3025.84 23.4368C3025.84 10.4927 3014.99 0 3001.61 0C2997.51 0 2993.64 0.991047 2990.26 2.73355C2997.91 6.67144 3003.13 14.4633 3003.13 23.4361V340.563C3003.13 349.535 2997.91 357.327 2990.26 361.266C2993.64 363.008 2997.51 363.999 3001.61 363.999C3014.99 363.999 3025.84 353.507 3025.84 340.563V23.4368Z" fill="#EF4722"/>
<path d="M2977.38 48.7227H3025.84V105.355H2977.38V48.7227Z" fill="#FFD740"/>
<path d="M3003.13 48.7227H3025.84V105.355H3003.13V48.7227Z" fill="#FFC400"/>
<path d="M2977.38 276.571H3025.84V333.204H2977.38V276.571Z" fill="#4DD0E1"/>
<path d="M3003.13 276.571H3025.84V333.204H3003.13V276.571Z" fill="#26C6DA"/>
<path d="M3001.79 234.174H3001.44C2988.21 234.174 2977.39 223.703 2977.39 210.905V171.021C2977.39 158.223 2988.21 147.752 3001.44 147.752H3001.79C3015.02 147.752 3025.84 158.223 3025.84 171.021V210.905C3025.84 223.704 3015.02 234.174 3001.79 234.174Z" fill="#5788A1"/>
<path d="M3001.61 234.175C3014.99 234.175 3025.84 223.682 3025.84 210.738C3025.84 197.794 3014.99 187.301 3001.61 187.301C2988.23 187.301 2977.38 197.794 2977.38 210.738C2977.38 223.682 2988.23 234.175 3001.61 234.175Z" fill="#4A758A"/>
<path d="M3027.29 195.886H2975.93C2974.64 195.886 2973.6 194.875 2973.6 193.627V176.172C2973.6 174.925 2974.64 173.914 2975.93 173.914H3027.29C3028.58 173.914 3029.63 174.925 3029.63 176.172V193.627C3029.63 194.875 3028.58 195.886 3027.29 195.886Z" fill="#5C91AB"/>
<path d="M3027.29 173.915H3004.58C3005.87 173.915 3006.91 174.925 3006.91 176.173V193.628C3006.91 194.876 3005.87 195.887 3004.58 195.887H3027.29C3028.58 195.887 3029.63 194.876 3029.63 193.628V176.173C3029.63 174.925 3028.58 173.915 3027.29 173.915Z" fill="#5788A1"/>
<path d="M2870.71 63.9246H2864.12V33.3238C2864.12 30.3783 2861.65 27.9917 2858.61 27.9917C2855.57 27.9917 2853.1 30.3783 2853.1 33.3238V63.9246H2846.51C2843.47 63.9246 2841 66.3113 2841 69.2567C2841 72.2021 2843.47 74.5887 2846.51 74.5887H2853.1V330.676C2853.1 333.622 2855.57 336.008 2858.61 336.008C2861.65 336.008 2864.12 333.622 2864.12 330.676V74.5887H2870.71C2873.75 74.5887 2876.22 72.2021 2876.22 69.2567C2876.22 66.3113 2873.75 63.9246 2870.71 63.9246Z" fill="#5C91AB"/>
<path d="M3079.49 63.9246H3072.9V33.3238C3072.9 30.3783 3070.43 27.9917 3067.39 27.9917C3064.35 27.9917 3061.88 30.3783 3061.88 33.3238V63.9246H3055.29C3052.25 63.9246 3049.78 66.3113 3049.78 69.2567C3049.78 72.2021 3052.25 74.5887 3055.29 74.5887H3061.88V330.676C3061.88 333.622 3064.35 336.008 3067.39 336.008C3070.43 336.008 3072.9 333.622 3072.9 330.676V74.5887H3079.49C3082.54 74.5887 3085 72.2021 3085 69.2567C3085 66.3113 3082.54 63.9246 3079.49 63.9246Z" fill="#5C91AB"/>
<path d="M64.064 286.12C61.0773 286.12 58.3893 285.299 56 283.656C53.76 281.864 52.0427 279.325 50.848 276.04L6.944 141.192C6.496 139.549 6.272 138.28 6.272 137.384C6.12267 134.547 6.944 132.232 8.736 130.44C10.6773 128.499 13.1413 127.528 16.128 127.528C18.5173 127.528 20.608 128.275 22.4 129.768C24.192 131.261 25.4613 133.203 26.208 135.592L63.84 259.24L101.696 136.04C102.443 133.501 103.861 131.485 105.952 129.992C108.192 128.349 110.656 127.528 113.344 127.528C116.032 127.528 118.421 128.349 120.512 129.992C122.752 131.485 124.245 133.501 124.992 136.04L162.848 259.24L200.48 135.592C201.227 133.203 202.496 131.261 204.288 129.768C206.08 128.275 208.171 127.528 210.56 127.528C213.547 127.528 215.936 128.499 217.728 130.44C219.669 132.232 220.565 134.547 220.416 137.384C220.416 138.28 220.192 139.549 219.744 141.192L175.84 276.04C174.645 279.325 172.853 281.864 170.464 283.656C168.224 285.299 165.611 286.12 162.624 286.12C159.637 286.12 156.875 285.224 154.336 283.432C151.947 281.491 150.304 279.027 149.408 276.04L113.344 161.8L77.28 276.04C76.384 279.027 74.6667 281.491 72.128 283.432C69.7387 285.224 67.0507 286.12 64.064 286.12ZM258.214 285C255.377 285 252.988 284.029 251.046 282.088C249.105 280.147 248.134 277.757 248.134 274.92V138.952C248.134 136.115 249.105 133.725 251.046 131.784C252.988 129.693 255.377 128.648 258.214 128.648H348.038C350.726 128.648 352.966 129.619 354.758 131.56C356.7 133.352 357.67 135.592 357.67 138.28C357.67 140.968 356.7 143.208 354.758 145C352.966 146.792 350.726 147.688 348.038 147.688H268.518V197.192H339.974C342.662 197.192 344.902 198.163 346.694 200.104C348.636 201.896 349.606 204.136 349.606 206.824C349.606 209.512 348.636 211.752 346.694 213.544C344.902 215.336 342.662 216.232 339.974 216.232H268.518V265.96H348.038C350.726 265.96 352.966 266.931 354.758 268.872C356.7 270.664 357.67 272.904 357.67 275.592C357.67 278.28 356.7 280.52 354.758 282.312C352.966 284.104 350.726 285 348.038 285H258.214ZM405.09 285C401.207 285 397.847 283.656 395.01 280.968C392.322 278.131 390.978 274.771 390.978 270.888V137.832C390.978 134.995 391.949 132.605 393.89 130.664C395.831 128.573 398.221 127.528 401.058 127.528C403.895 127.528 406.285 128.573 408.226 130.664C410.317 132.605 411.362 134.995 411.362 137.832V264.616H484.61C487.447 264.616 489.837 265.661 491.778 267.752C493.869 269.693 494.914 272.083 494.914 274.92C494.914 277.757 493.869 280.147 491.778 282.088C489.837 284.029 487.447 285 484.61 285H405.09ZM589.033 287.24C574.099 287.24 560.659 284.029 548.713 277.608C536.915 271.037 527.582 261.704 520.713 249.608C513.993 237.363 510.633 223.101 510.633 206.824C510.633 190.547 513.993 176.36 520.713 164.264C527.582 152.019 536.915 142.685 548.713 136.264C560.659 129.693 574.099 126.408 589.033 126.408C599.187 126.408 608.222 127.603 616.137 129.992C624.201 132.381 632.19 135.816 640.105 140.296C643.39 142.088 645.033 144.925 645.033 148.808C645.033 151.048 644.211 153.064 642.569 154.856C640.926 156.499 638.761 157.32 636.073 157.32C634.579 157.32 633.235 157.021 632.041 156.424C625.47 152.989 619.049 150.376 612.777 148.584C606.505 146.792 599.262 145.896 591.049 145.896C578.206 145.896 567.23 148.584 558.121 153.96C549.161 159.187 542.366 166.429 537.737 175.688C533.257 184.797 531.017 195.176 531.017 206.824C531.017 218.472 533.257 228.925 537.737 238.184C542.366 247.293 549.161 254.536 558.121 259.912C567.23 265.139 578.206 267.752 591.049 267.752C599.262 267.752 606.505 266.856 612.777 265.064C619.049 263.272 625.47 260.659 632.041 257.224C633.235 256.627 634.579 256.328 636.073 256.328C638.761 256.328 640.926 257.149 642.569 258.792C644.211 260.435 645.033 262.451 645.033 264.84C645.033 268.723 643.39 271.56 640.105 273.352C632.19 277.832 624.201 281.267 616.137 283.656C608.222 286.045 599.187 287.24 589.033 287.24ZM740.632 287.24C724.952 287.24 711.213 283.805 699.416 276.936C687.618 270.067 678.509 260.584 672.088 248.488C665.666 236.392 662.306 222.504 662.008 206.824C662.306 191.144 665.666 177.256 672.088 165.16C678.509 153.064 687.618 143.581 699.416 136.712C711.213 129.843 724.952 126.408 740.632 126.408C756.312 126.408 769.976 129.843 781.624 136.712C793.421 143.581 802.53 153.139 808.952 165.384C815.522 177.48 818.957 191.293 819.256 206.824C818.957 222.355 815.522 236.243 808.952 248.488C802.53 260.584 793.421 270.067 781.624 276.936C769.976 283.805 756.312 287.24 740.632 287.24ZM740.632 268.2C752.578 268.2 762.957 265.512 771.768 260.136C780.578 254.76 787.298 247.443 791.928 238.184C796.557 228.925 798.872 218.472 798.872 206.824C798.872 195.176 796.557 184.723 791.928 175.464C787.298 166.205 780.578 158.888 771.768 153.512C762.957 148.136 752.578 145.448 740.632 145.448C728.536 145.448 718.082 148.136 709.272 153.512C700.61 158.888 693.965 166.205 689.336 175.464C684.706 184.723 682.392 195.176 682.392 206.824C682.392 218.472 684.706 228.925 689.336 238.184C693.965 247.443 700.61 254.76 709.272 260.136C718.082 265.512 728.536 268.2 740.632 268.2ZM863.277 286.12C860.439 286.12 858.05 285.149 856.109 283.208C854.167 281.267 853.197 278.877 853.197 276.04V142.312C853.197 138.28 854.615 134.845 857.453 132.008C860.29 129.021 863.725 127.528 867.757 127.528H875.149C878.135 127.528 880.823 128.424 883.213 130.216C885.751 132.008 887.618 134.248 888.813 136.936L939.661 263.72L990.509 136.936C991.703 134.248 993.495 132.008 995.885 130.216C998.423 128.424 1001.19 127.528 1004.17 127.528H1011.56C1015.6 127.528 1019.03 129.021 1021.87 132.008C1024.71 134.845 1026.12 138.28 1026.12 142.312V276.04C1026.12 278.877 1025.15 281.267 1023.21 283.208C1021.27 285.149 1018.88 286.12 1016.04 286.12C1013.21 286.12 1010.74 285.149 1008.65 283.208C1006.71 281.267 1005.74 278.877 1005.74 276.04V148.808L953.997 276.712C952.802 279.549 950.861 281.864 948.173 283.656C945.634 285.299 942.797 286.12 939.661 286.12C936.525 286.12 933.613 285.299 930.925 283.656C928.386 281.864 926.519 279.549 925.325 276.712L873.581 148.808V276.04C873.581 278.877 872.535 281.267 870.445 283.208C868.503 285.149 866.114 286.12 863.277 286.12ZM1079.62 285C1076.78 285 1074.39 284.029 1072.45 282.088C1070.51 280.147 1069.54 277.757 1069.54 274.92V138.952C1069.54 136.115 1070.51 133.725 1072.45 131.784C1074.39 129.693 1076.78 128.648 1079.62 128.648H1169.44C1172.13 128.648 1174.37 129.619 1176.16 131.56C1178.11 133.352 1179.08 135.592 1179.08 138.28C1179.08 140.968 1178.11 143.208 1176.16 145C1174.37 146.792 1172.13 147.688 1169.44 147.688H1089.92V197.192H1161.38C1164.07 197.192 1166.31 198.163 1168.1 200.104C1170.04 201.896 1171.01 204.136 1171.01 206.824C1171.01 209.512 1170.04 211.752 1168.1 213.544C1166.31 215.336 1164.07 216.232 1161.38 216.232H1089.92V265.96H1169.44C1172.13 265.96 1174.37 266.931 1176.16 268.872C1178.11 270.664 1179.08 272.904 1179.08 275.592C1179.08 278.28 1178.11 280.52 1176.16 282.312C1174.37 284.104 1172.13 285 1169.44 285H1079.62ZM1316.94 286.12C1314.1 286.12 1311.71 285.149 1309.77 283.208C1307.83 281.267 1306.86 278.877 1306.86 276.04V147.688H1261.16C1258.48 147.688 1256.24 146.792 1254.44 145C1252.65 143.208 1251.76 140.968 1251.76 138.28C1251.76 135.592 1252.65 133.352 1254.44 131.56C1256.24 129.619 1258.48 128.648 1261.16 128.648H1372.72C1375.4 128.648 1377.64 129.619 1379.44 131.56C1381.38 133.352 1382.35 135.592 1382.35 138.28C1382.35 140.968 1381.38 143.208 1379.44 145C1377.64 146.792 1375.4 147.688 1372.72 147.688H1327.24V276.04C1327.24 278.877 1326.2 281.267 1324.11 283.208C1322.17 285.149 1319.78 286.12 1316.94 286.12ZM1470.82 287.24C1455.14 287.24 1441.4 283.805 1429.6 276.936C1417.81 270.067 1408.7 260.584 1402.28 248.488C1395.85 236.392 1392.49 222.504 1392.2 206.824C1392.49 191.144 1395.85 177.256 1402.28 165.16C1408.7 153.064 1417.81 143.581 1429.6 136.712C1441.4 129.843 1455.14 126.408 1470.82 126.408C1486.5 126.408 1500.16 129.843 1511.81 136.712C1523.61 143.581 1532.72 153.139 1539.14 165.384C1545.71 177.48 1549.14 191.293 1549.44 206.824C1549.14 222.355 1545.71 236.243 1539.14 248.488C1532.72 260.584 1523.61 270.067 1511.81 276.936C1500.16 283.805 1486.5 287.24 1470.82 287.24ZM1470.82 268.2C1482.77 268.2 1493.14 265.512 1501.96 260.136C1510.77 254.76 1517.49 247.443 1522.12 238.184C1526.74 228.925 1529.06 218.472 1529.06 206.824C1529.06 195.176 1526.74 184.723 1522.12 175.464C1517.49 166.205 1510.77 158.888 1501.96 153.512C1493.14 148.136 1482.77 145.448 1470.82 145.448C1458.72 145.448 1448.27 148.136 1439.46 153.512C1430.8 158.888 1424.15 166.205 1419.52 175.464C1414.89 184.723 1412.58 195.176 1412.58 206.824C1412.58 218.472 1414.89 228.925 1419.52 238.184C1424.15 247.443 1430.8 254.76 1439.46 260.136C1448.27 265.512 1458.72 268.2 1470.82 268.2ZM1748.8 285H1777.67L1734.8 105.078H1729.66L1617 285H1650.03L1666 258.203H1742.89L1748.8 285ZM1680.11 234.469L1722 164.141L1737.64 234.469H1680.11ZM1797.36 285H1825.8L1837.72 223.859H1862C1903.89 223.859 1930.58 201.438 1935.5 167.969C1940.97 131.109 1916.03 108.688 1884.31 108.688H1831.59L1797.36 285ZM1867.25 196.516L1843.08 196.406L1854.78 136.141H1879.06C1896.78 136.141 1911.11 148.172 1908.27 167.75C1905.53 185.141 1890.98 196.625 1867.25 196.516ZM2071.34 165.672C2077.14 129.469 2049.8 108.688 2020.05 108.688H1969.19L1935.06 285H1963.5L1976.73 216.75H1999.27L2032.73 285H2064.02L2027.16 214.562C2051.11 208.219 2067.41 189.406 2071.34 165.672ZM2042.91 165.016C2040.39 180.766 2026.17 193.781 2004.19 193.781H1981.11L1992.38 136.141H2015.45C2032.41 136.141 2045.53 147.516 2042.91 165.016ZM2185.53 94.1406L2170.88 58.375H2146.48L2165.52 94.1406H2185.53ZM2212.22 135.922L2217.47 108.688H2117.06L2082.83 285H2183.23L2188.59 257.438H2116.62L2126.14 208.656H2187.83L2193.19 181.094H2131.5L2140.25 135.922H2212.22ZM2265.92 287.953C2300.48 287.953 2324.55 268.156 2329.91 241.25C2335.05 216.422 2319.52 199.469 2294.69 184.922C2279.38 176.172 2262.75 168.844 2265.59 153.422C2267.56 142.484 2278.39 132.641 2292.61 132.641C2306.06 132.641 2317.55 140.516 2320.72 152.984L2343.25 137.781C2338.77 119.516 2320.5 105.516 2296.66 105.516C2267.78 105.516 2243.39 123.016 2238.25 147.844C2232.23 177.156 2252.14 191.266 2269.31 201.328C2282.77 209.203 2305.41 221.234 2301.8 239.5C2299.06 252.953 2284.3 260.062 2269.75 260.062C2253.45 260.062 2239.89 251.641 2231.14 235.125L2208.83 250.547C2216.81 271.984 2236.06 287.953 2265.92 287.953ZM2464.55 287.953C2499.11 287.953 2523.17 268.156 2528.53 241.25C2533.67 216.422 2518.14 199.469 2493.31 184.922C2478 176.172 2461.38 168.844 2464.22 153.422C2466.19 142.484 2477.02 132.641 2491.23 132.641C2504.69 132.641 2516.17 140.516 2519.34 152.984L2541.88 137.781C2537.39 119.516 2519.12 105.516 2495.28 105.516C2466.41 105.516 2442.02 123.016 2436.88 147.844C2430.86 177.156 2450.77 191.266 2467.94 201.328C2481.39 209.203 2504.03 221.234 2500.42 239.5C2497.69 252.953 2482.92 260.062 2468.38 260.062C2452.08 260.062 2438.52 251.641 2429.77 235.125L2407.45 250.547C2415.44 271.984 2434.69 287.953 2464.55 287.953ZM2695.88 108.688H2662.08L2590.66 191.156L2606.62 108.688H2578.19L2543.95 285H2572.39L2589.89 194.766L2635.94 285H2666.78L2620.62 195.312L2695.88 108.688ZM2685.7 285H2714.14L2748.38 108.688H2719.94L2685.7 285Z" fill="black"/>
</svg>
