<svg width="1449" height="364" viewBox="0 0 1449 364" fill="none" xmlns="http://www.w3.org/2000/svg">
<path d="M1288.39 364C1275 364 1264.16 353.507 1264.16 340.563V23.4361C1264.16 10.4927 1275 0 1288.39 0C1301.77 0 1312.61 10.4927 1312.61 23.4368V340.564C1312.61 353.507 1301.77 364 1288.39 364Z" fill="#FF4B22"/>
<path d="M1312.61 23.4368C1312.61 10.4927 1301.77 0 1288.39 0C1284.28 0 1280.42 0.991047 1277.03 2.73355C1284.68 6.67144 1289.9 14.4633 1289.9 23.4361V340.563C1289.9 349.535 1284.68 357.327 1277.03 361.266C1280.42 363.008 1284.28 363.999 1288.39 363.999C1301.77 363.999 1312.61 353.507 1312.61 340.563V23.4368Z" fill="#EF4722"/>
<path d="M1264.16 48.7227H1312.61V105.355H1264.16V48.7227Z" fill="#FFD740"/>
<path d="M1289.9 48.7227H1312.61V105.355H1289.9V48.7227Z" fill="#FFC400"/>
<path d="M1264.16 276.571H1312.61V333.204H1264.16V276.571Z" fill="#4DD0E1"/>
<path d="M1289.9 276.571H1312.61V333.204H1289.9V276.571Z" fill="#26C6DA"/>
<path d="M1288.56 234.174H1288.21C1274.98 234.174 1264.16 223.703 1264.16 210.905V171.021C1264.16 158.223 1274.98 147.752 1288.21 147.752H1288.56C1301.79 147.752 1312.61 158.223 1312.61 171.021V210.905C1312.61 223.704 1301.79 234.174 1288.56 234.174Z" fill="#5788A1"/>
<path d="M1288.39 234.175C1301.77 234.175 1312.61 223.682 1312.61 210.738C1312.61 197.794 1301.77 187.301 1288.39 187.301C1275.01 187.301 1264.16 197.794 1264.16 210.738C1264.16 223.682 1275.01 234.175 1288.39 234.175Z" fill="#4A758A"/>
<path d="M1314.07 195.886H1262.71C1261.42 195.886 1260.37 194.875 1260.37 193.627V176.172C1260.37 174.925 1261.42 173.914 1262.71 173.914H1314.07C1315.35 173.914 1316.4 174.925 1316.4 176.172V193.627C1316.4 194.875 1315.35 195.886 1314.07 195.886Z" fill="#5C91AB"/>
<path d="M1314.07 173.915H1291.35C1292.64 173.915 1293.69 174.925 1293.69 176.173V193.628C1293.69 194.876 1292.64 195.887 1291.35 195.887H1314.07C1315.35 195.887 1316.4 194.876 1316.4 193.628V176.173C1316.4 174.925 1315.35 173.915 1314.07 173.915Z" fill="#5788A1"/>
<path d="M1365.61 364C1352.23 364 1341.38 353.507 1341.38 340.563V23.4368C1341.38 10.4927 1352.23 0 1365.61 0C1378.99 0 1389.84 10.4927 1389.84 23.4368V340.564C1389.84 353.507 1378.99 364 1365.61 364Z" fill="#FF4B22"/>
<path d="M1389.84 23.4368C1389.84 10.4927 1378.99 0 1365.61 0C1361.51 0 1357.64 0.991047 1354.26 2.73355C1361.91 6.67144 1367.13 14.4633 1367.13 23.4361V340.563C1367.13 349.535 1361.91 357.327 1354.26 361.266C1357.64 363.008 1361.51 363.999 1365.61 363.999C1378.99 363.999 1389.84 353.507 1389.84 340.563V23.4368Z" fill="#EF4722"/>
<path d="M1341.38 48.7227H1389.84V105.355H1341.38V48.7227Z" fill="#FFD740"/>
<path d="M1367.13 48.7227H1389.84V105.355H1367.13V48.7227Z" fill="#FFC400"/>
<path d="M1341.38 276.571H1389.84V333.204H1341.38V276.571Z" fill="#4DD0E1"/>
<path d="M1367.13 276.571H1389.84V333.204H1367.13V276.571Z" fill="#26C6DA"/>
<path d="M1365.79 234.174H1365.44C1352.21 234.174 1341.39 223.703 1341.39 210.905V171.021C1341.39 158.223 1352.21 147.752 1365.44 147.752H1365.79C1379.02 147.752 1389.84 158.223 1389.84 171.021V210.905C1389.84 223.704 1379.02 234.174 1365.79 234.174Z" fill="#5788A1"/>
<path d="M1365.61 234.175C1378.99 234.175 1389.84 223.682 1389.84 210.738C1389.84 197.794 1378.99 187.301 1365.61 187.301C1352.23 187.301 1341.38 197.794 1341.38 210.738C1341.38 223.682 1352.23 234.175 1365.61 234.175Z" fill="#4A758A"/>
<path d="M1391.29 195.886H1339.93C1338.64 195.886 1337.6 194.875 1337.6 193.627V176.172C1337.6 174.925 1338.64 173.914 1339.93 173.914H1391.29C1392.58 173.914 1393.63 174.925 1393.63 176.172V193.627C1393.63 194.875 1392.58 195.886 1391.29 195.886Z" fill="#5C91AB"/>
<path d="M1391.29 173.915H1368.58C1369.87 173.915 1370.91 174.925 1370.91 176.173V193.628C1370.91 194.876 1369.87 195.887 1368.58 195.887H1391.29C1392.58 195.887 1393.63 194.876 1393.63 193.628V176.173C1393.63 174.925 1392.58 173.915 1391.29 173.915Z" fill="#5788A1"/>
<path d="M1234.71 63.9246H1228.12V33.3238C1228.12 30.3783 1225.65 27.9917 1222.61 27.9917C1219.57 27.9917 1217.1 30.3783 1217.1 33.3238V63.9246H1210.51C1207.47 63.9246 1205 66.3113 1205 69.2567C1205 72.2021 1207.47 74.5887 1210.51 74.5887H1217.1V330.676C1217.1 333.622 1219.57 336.008 1222.61 336.008C1225.65 336.008 1228.12 333.622 1228.12 330.676V74.5887H1234.71C1237.75 74.5887 1240.22 72.2021 1240.22 69.2567C1240.22 66.3113 1237.75 63.9246 1234.71 63.9246Z" fill="#5C91AB"/>
<path d="M1443.49 63.9246H1436.9V33.3238C1436.9 30.3783 1434.43 27.9917 1431.39 27.9917C1428.35 27.9917 1425.88 30.3783 1425.88 33.3238V63.9246H1419.29C1416.25 63.9246 1413.78 66.3113 1413.78 69.2567C1413.78 72.2021 1416.25 74.5887 1419.29 74.5887H1425.88V330.676C1425.88 333.622 1428.35 336.008 1431.39 336.008C1434.43 336.008 1436.9 333.622 1436.9 330.676V74.5887H1443.49C1446.54 74.5887 1449 72.2021 1449 69.2567C1449 66.3113 1446.54 63.9246 1443.49 63.9246Z" fill="#5C91AB"/>
<path d="M132.516 289H161.391L118.516 109.078H113.375L0.71875 289H33.75L49.7188 262.203H126.609L132.516 289ZM63.8281 238.469L105.719 168.141L121.359 238.469H63.8281ZM181.078 289H209.516L221.438 227.859H245.719C287.609 227.859 314.297 205.438 319.219 171.969C324.688 135.109 299.75 112.688 268.031 112.688H215.312L181.078 289ZM250.969 200.516L226.797 200.406L238.5 140.141H262.781C280.5 140.141 294.828 152.172 291.984 171.75C289.25 189.141 274.703 200.625 250.969 200.516ZM455.062 169.672C460.859 133.469 433.516 112.688 403.766 112.688H352.906L318.781 289H347.219L360.453 220.75H382.984L416.453 289H447.734L410.875 218.562C434.828 212.219 451.125 193.406 455.062 169.672ZM426.625 169.016C424.109 184.766 409.891 197.781 387.906 197.781H364.828L376.094 140.141H399.172C416.125 140.141 429.25 151.516 426.625 169.016ZM569.25 98.1406L554.594 62.375H530.203L549.234 98.1406H569.25ZM595.938 139.922L601.188 112.688H500.781L466.547 289H566.953L572.312 261.438H500.344L509.859 212.656H571.547L576.906 185.094H515.219L523.969 139.922H595.938ZM649.641 291.953C684.203 291.953 708.266 272.156 713.625 245.25C718.766 220.422 703.234 203.469 678.406 188.922C663.094 180.172 646.469 172.844 649.312 157.422C651.281 146.484 662.109 136.641 676.328 136.641C689.781 136.641 701.266 144.516 704.438 156.984L726.969 141.781C722.484 123.516 704.219 109.516 680.375 109.516C651.5 109.516 627.109 127.016 621.969 151.844C615.953 181.156 635.859 195.266 653.031 205.328C666.484 213.203 689.125 225.234 685.516 243.5C682.781 256.953 668.016 264.062 653.469 264.062C637.172 264.062 623.609 255.641 614.859 239.125L592.547 254.547C600.531 275.984 619.781 291.953 649.641 291.953ZM848.266 291.953C882.828 291.953 906.891 272.156 912.25 245.25C917.391 220.422 901.859 203.469 877.031 188.922C861.719 180.172 845.094 172.844 847.938 157.422C849.906 146.484 860.734 136.641 874.953 136.641C888.406 136.641 899.891 144.516 903.062 156.984L925.594 141.781C921.109 123.516 902.844 109.516 879 109.516C850.125 109.516 825.734 127.016 820.594 151.844C814.578 181.156 834.484 195.266 851.656 205.328C865.109 213.203 887.75 225.234 884.141 243.5C881.406 256.953 866.641 264.062 852.094 264.062C835.797 264.062 822.234 255.641 813.484 239.125L791.172 254.547C799.156 275.984 818.406 291.953 848.266 291.953ZM1079.59 112.688H1045.8L974.375 195.156L990.344 112.688H961.906L927.672 289H956.109L973.609 198.766L1019.66 289H1050.5L1004.34 199.312L1079.59 112.688ZM1069.42 289H1097.86L1132.09 112.688H1103.66L1069.42 289Z" fill="white"/>
</svg>
