<svg width="1412" height="216" viewBox="0 0 1412 216" fill="none" xmlns="http://www.w3.org/2000/svg">
<path d="M1316.78 216C1308.84 216 1302.41 209.779 1302.41 202.105V14.0903C1302.41 6.4166 1308.84 0.195786 1316.78 0.195786C1324.71 0.195786 1331.14 6.41659 1331.14 14.0907V202.105C1331.14 209.779 1324.71 216 1316.78 216Z" fill="#FF4B22"/>
<path d="M1331.14 14.0907C1331.14 6.41659 1324.71 0.195786 1316.78 0.195786C1314.34 0.195786 1312.05 0.783346 1310.04 1.81642C1314.58 4.15107 1317.67 8.77063 1317.67 14.0903V202.105C1317.67 207.424 1314.58 212.044 1310.04 214.379C1312.05 215.412 1314.34 216 1316.78 216C1324.71 216 1331.14 209.779 1331.14 202.105V14.0907Z" fill="#EF4722"/>
<path d="M1302.41 29.0819H1331.14V62.6576H1302.41V29.0819Z" fill="#FFD740"/>
<path d="M1317.67 29.0819H1331.14V62.6576H1317.67V29.0819Z" fill="#FFC400"/>
<path d="M1302.41 164.166H1331.14V197.742H1302.41V164.166Z" fill="#4DD0E1"/>
<path d="M1317.67 164.166H1331.14V197.742H1317.67V164.166Z" fill="#26C6DA"/>
<path d="M1316.88 139.03H1316.67C1308.83 139.03 1302.41 132.822 1302.41 125.235V101.589C1302.41 94.0011 1308.83 87.7933 1316.67 87.7933H1316.88C1324.72 87.7933 1331.14 94.0015 1331.14 101.589V125.235C1331.14 132.823 1324.72 139.03 1316.88 139.03Z" fill="#5788A1"/>
<path d="M1316.78 139.031C1324.71 139.031 1331.14 132.81 1331.14 125.136C1331.14 117.462 1324.71 111.241 1316.78 111.241C1308.84 111.241 1302.41 117.462 1302.41 125.136C1302.41 132.81 1308.84 139.031 1316.78 139.031Z" fill="#4A758A"/>
<path d="M1332 116.33H1301.55C1300.79 116.33 1300.17 115.731 1300.17 114.991V104.643C1300.17 103.904 1300.79 103.304 1301.55 103.304H1332C1332.77 103.304 1333.39 103.903 1333.39 104.643V114.991C1333.39 115.731 1332.77 116.33 1332 116.33Z" fill="#5C91AB"/>
<path d="M1332 103.304H1318.54C1319.3 103.304 1319.92 103.904 1319.92 104.643V114.992C1319.92 115.732 1319.3 116.331 1318.54 116.331H1332C1332.77 116.331 1333.39 115.732 1333.39 114.992V104.643C1333.39 103.904 1332.77 103.304 1332 103.304Z" fill="#5788A1"/>
<path d="M1362.56 216C1354.63 216 1348.2 209.779 1348.2 202.105V14.0907C1348.2 6.41659 1354.63 0.195786 1362.56 0.195786C1370.49 0.195786 1376.93 6.41659 1376.93 14.0907V202.105C1376.93 209.779 1370.5 216 1362.56 216Z" fill="#FF4B22"/>
<path d="M1376.93 14.0907C1376.93 6.41659 1370.5 0.195786 1362.56 0.195786C1360.13 0.195786 1357.84 0.783346 1355.83 1.81642C1360.37 4.15107 1363.46 8.77063 1363.46 14.0903V202.105C1363.46 207.424 1360.37 212.044 1355.83 214.379C1357.84 215.412 1360.13 216 1362.56 216C1370.49 216 1376.93 209.779 1376.93 202.105V14.0907Z" fill="#EF4722"/>
<path d="M1348.2 29.0819H1376.93V62.6576H1348.2V29.0819Z" fill="#FFD740"/>
<path d="M1363.46 29.0819H1376.93V62.6576H1363.46V29.0819Z" fill="#FFC400"/>
<path d="M1348.2 164.166H1376.93V197.742H1348.2V164.166Z" fill="#4DD0E1"/>
<path d="M1363.46 164.166H1376.93V197.742H1363.46V164.166Z" fill="#26C6DA"/>
<path d="M1362.67 139.03H1362.46C1354.62 139.03 1348.2 132.822 1348.2 125.235V101.589C1348.2 94.0011 1354.62 87.7933 1362.46 87.7933H1362.67C1370.51 87.7933 1376.93 94.0015 1376.93 101.589V125.235C1376.93 132.823 1370.51 139.03 1362.67 139.03Z" fill="#5788A1"/>
<path d="M1362.56 139.031C1370.5 139.031 1376.93 132.81 1376.93 125.136C1376.93 117.462 1370.5 111.241 1362.56 111.241C1354.63 111.241 1348.2 117.462 1348.2 125.136C1348.2 132.81 1354.63 139.031 1362.56 139.031Z" fill="#4A758A"/>
<path d="M1377.79 116.33H1347.34C1346.57 116.33 1345.95 115.731 1345.95 114.991V104.643C1345.95 103.904 1346.57 103.304 1347.34 103.304H1377.79C1378.55 103.304 1379.17 103.903 1379.17 104.643V114.991C1379.17 115.731 1378.55 116.33 1377.79 116.33Z" fill="#5C91AB"/>
<path d="M1377.79 103.304H1364.32C1365.09 103.304 1365.7 103.904 1365.7 104.643V114.992C1365.7 115.732 1365.09 116.331 1364.32 116.331H1377.79C1378.55 116.331 1379.17 115.732 1379.17 114.992V104.643C1379.17 103.904 1378.55 103.304 1377.79 103.304Z" fill="#5788A1"/>
<path d="M1284.96 38.0947H1281.04V19.9524C1281.04 18.2061 1279.58 16.7912 1277.78 16.7912C1275.98 16.7912 1274.52 18.2061 1274.52 19.9524V38.0947H1270.6C1268.8 38.0947 1267.34 39.5096 1267.34 41.2559C1267.34 43.0021 1268.8 44.4171 1270.6 44.4171H1274.52V196.243C1274.52 197.99 1275.98 199.405 1277.78 199.405C1279.58 199.405 1281.04 197.99 1281.04 196.243V44.4171H1284.96C1286.76 44.4171 1288.22 43.0021 1288.22 41.2559C1288.22 39.5096 1286.76 38.0947 1284.96 38.0947Z" fill="#5C91AB"/>
<path d="M1408.74 38.0947H1404.82V19.9524C1404.82 18.2062 1403.36 16.7912 1401.56 16.7912C1399.76 16.7912 1398.3 18.2062 1398.3 19.9524V38.0947H1394.38C1392.58 38.0947 1391.12 39.5097 1391.12 41.2559C1391.12 43.0022 1392.58 44.4171 1394.38 44.4171H1398.3V196.243C1398.3 197.99 1399.76 199.405 1401.56 199.405C1403.36 199.405 1404.82 197.99 1404.82 196.243V44.4171H1408.74C1410.54 44.4171 1412 43.0022 1412 41.2559C1412 39.5097 1410.54 38.0947 1408.74 38.0947Z" fill="#5C91AB"/>
<path d="M28.028 157.49C26.7213 157.49 25.5453 157.131 24.5 156.412C23.52 155.628 22.7687 154.517 22.246 153.08L3.038 94.084C2.842 93.3653 2.744 92.81 2.744 92.418C2.67867 91.1767 3.038 90.164 3.822 89.38C4.67133 88.5307 5.74933 88.106 7.056 88.106C8.10133 88.106 9.016 88.4327 9.8 89.086C10.584 89.7393 11.1393 90.5887 11.466 91.634L27.93 145.73L44.492 91.83C44.8187 90.7193 45.4393 89.8373 46.354 89.184C47.334 88.4653 48.412 88.106 49.588 88.106C50.764 88.106 51.8093 88.4653 52.724 89.184C53.704 89.8373 54.3573 90.7193 54.684 91.83L71.246 145.73L87.71 91.634C88.0367 90.5887 88.592 89.7393 89.376 89.086C90.16 88.4327 91.0747 88.106 92.12 88.106C93.4267 88.106 94.472 88.5307 95.256 89.38C96.1053 90.164 96.4973 91.1767 96.432 92.418C96.432 92.81 96.334 93.3653 96.138 94.084L76.93 153.08C76.4073 154.517 75.6233 155.628 74.578 156.412C73.598 157.131 72.4547 157.49 71.148 157.49C69.8413 157.49 68.6327 157.098 67.522 156.314C66.4767 155.465 65.758 154.387 65.366 153.08L49.588 103.1L33.81 153.08C33.418 154.387 32.6667 155.465 31.556 156.314C30.5107 157.098 29.3347 157.49 28.028 157.49ZM112.969 157C111.727 157 110.682 156.575 109.833 155.726C108.983 154.877 108.559 153.831 108.559 152.59V93.104C108.559 91.8627 108.983 90.8173 109.833 89.968C110.682 89.0533 111.727 88.596 112.969 88.596H152.267C153.443 88.596 154.423 89.0207 155.207 89.87C156.056 90.654 156.481 91.634 156.481 92.81C156.481 93.986 156.056 94.966 155.207 95.75C154.423 96.534 153.443 96.926 152.267 96.926H117.477V118.584H148.739C149.915 118.584 150.895 119.009 151.679 119.858C152.528 120.642 152.953 121.622 152.953 122.798C152.953 123.974 152.528 124.954 151.679 125.738C150.895 126.522 149.915 126.914 148.739 126.914H117.477V148.67H152.267C153.443 148.67 154.423 149.095 155.207 149.944C156.056 150.728 156.481 151.708 156.481 152.884C156.481 154.06 156.056 155.04 155.207 155.824C154.423 156.608 153.443 157 152.267 157H112.969ZM177.227 157C175.528 157 174.058 156.412 172.817 155.236C171.641 153.995 171.053 152.525 171.053 150.826V92.614C171.053 91.3727 171.478 90.3273 172.327 89.478C173.176 88.5633 174.222 88.106 175.463 88.106C176.704 88.106 177.75 88.5633 178.599 89.478C179.514 90.3273 179.971 91.3727 179.971 92.614V148.082H212.017C213.258 148.082 214.304 148.539 215.153 149.454C216.068 150.303 216.525 151.349 216.525 152.59C216.525 153.831 216.068 154.877 215.153 155.726C214.304 156.575 213.258 157 212.017 157H177.227ZM257.702 157.98C251.168 157.98 245.288 156.575 240.062 153.766C234.9 150.891 230.817 146.808 227.812 141.516C224.872 136.159 223.402 129.919 223.402 122.798C223.402 115.677 224.872 109.47 227.812 104.178C230.817 98.8207 234.9 94.7373 240.062 91.928C245.288 89.0533 251.168 87.616 257.702 87.616C262.144 87.616 266.097 88.1387 269.56 89.184C273.088 90.2293 276.583 91.732 280.046 93.692C281.483 94.476 282.202 95.7173 282.202 97.416C282.202 98.396 281.842 99.278 281.124 100.062C280.405 100.781 279.458 101.14 278.282 101.14C277.628 101.14 277.04 101.009 276.518 100.748C273.643 99.2453 270.834 98.102 268.09 97.318C265.346 96.534 262.177 96.142 258.584 96.142C252.965 96.142 248.163 97.318 244.178 99.67C240.258 101.957 237.285 105.125 235.26 109.176C233.3 113.161 232.32 117.702 232.32 122.798C232.32 127.894 233.3 132.467 235.26 136.518C237.285 140.503 240.258 143.672 244.178 146.024C248.163 148.311 252.965 149.454 258.584 149.454C262.177 149.454 265.346 149.062 268.09 148.278C270.834 147.494 273.643 146.351 276.518 144.848C277.04 144.587 277.628 144.456 278.282 144.456C279.458 144.456 280.405 144.815 281.124 145.534C281.842 146.253 282.202 147.135 282.202 148.18C282.202 149.879 281.483 151.12 280.046 151.904C276.583 153.864 273.088 155.367 269.56 156.412C266.097 157.457 262.144 157.98 257.702 157.98ZM324.026 157.98C317.166 157.98 311.156 156.477 305.994 153.472C300.833 150.467 296.848 146.318 294.038 141.026C291.229 135.734 289.759 129.658 289.628 122.798C289.759 115.938 291.229 109.862 294.038 104.57C296.848 99.278 300.833 95.1293 305.994 92.124C311.156 89.1187 317.166 87.616 324.026 87.616C330.886 87.616 336.864 89.1187 341.96 92.124C347.122 95.1293 351.107 99.3107 353.916 104.668C356.791 109.96 358.294 116.003 358.424 122.798C358.294 129.593 356.791 135.669 353.916 141.026C351.107 146.318 347.122 150.467 341.96 153.472C336.864 156.477 330.886 157.98 324.026 157.98ZM324.026 149.65C329.253 149.65 333.794 148.474 337.648 146.122C341.503 143.77 344.443 140.569 346.468 136.518C348.494 132.467 349.506 127.894 349.506 122.798C349.506 117.702 348.494 113.129 346.468 109.078C344.443 105.027 341.503 101.826 337.648 99.474C333.794 97.122 329.253 95.946 324.026 95.946C318.734 95.946 314.161 97.122 310.306 99.474C306.517 101.826 303.61 105.027 301.584 109.078C299.559 113.129 298.546 117.702 298.546 122.798C298.546 127.894 299.559 132.467 301.584 136.518C303.61 140.569 306.517 143.77 310.306 146.122C314.161 148.474 318.734 149.65 324.026 149.65ZM377.684 157.49C376.442 157.49 375.397 157.065 374.548 156.216C373.698 155.367 373.274 154.321 373.274 153.08V94.574C373.274 92.81 373.894 91.3073 375.136 90.066C376.377 88.7593 377.88 88.106 379.644 88.106H382.878C384.184 88.106 385.36 88.498 386.406 89.282C387.516 90.066 388.333 91.046 388.856 92.222L411.102 147.69L433.348 92.222C433.87 91.046 434.654 90.066 435.7 89.282C436.81 88.498 438.019 88.106 439.326 88.106H442.56C444.324 88.106 445.826 88.7593 447.068 90.066C448.309 91.3073 448.93 92.81 448.93 94.574V153.08C448.93 154.321 448.505 155.367 447.656 156.216C446.806 157.065 445.761 157.49 444.52 157.49C443.278 157.49 442.2 157.065 441.286 156.216C440.436 155.367 440.012 154.321 440.012 153.08V97.416L417.374 153.374C416.851 154.615 416.002 155.628 414.826 156.412C413.715 157.131 412.474 157.49 411.102 157.49C409.73 157.49 408.456 157.131 407.28 156.412C406.169 155.628 405.352 154.615 404.83 153.374L382.192 97.416V153.08C382.192 154.321 381.734 155.367 380.82 156.216C379.97 157.065 378.925 157.49 377.684 157.49ZM472.334 157C471.093 157 470.047 156.575 469.198 155.726C468.349 154.877 467.924 153.831 467.924 152.59V93.104C467.924 91.8627 468.349 90.8173 469.198 89.968C470.047 89.0533 471.093 88.596 472.334 88.596H511.632C512.808 88.596 513.788 89.0207 514.572 89.87C515.421 90.654 515.846 91.634 515.846 92.81C515.846 93.986 515.421 94.966 514.572 95.75C513.788 96.534 512.808 96.926 511.632 96.926H476.842V118.584H508.104C509.28 118.584 510.26 119.009 511.044 119.858C511.893 120.642 512.318 121.622 512.318 122.798C512.318 123.974 511.893 124.954 511.044 125.738C510.26 126.522 509.28 126.914 508.104 126.914H476.842V148.67H511.632C512.808 148.67 513.788 149.095 514.572 149.944C515.421 150.728 515.846 151.708 515.846 152.884C515.846 154.06 515.421 155.04 514.572 155.824C513.788 156.608 512.808 157 511.632 157H472.334ZM576.161 157.49C574.92 157.49 573.874 157.065 573.025 156.216C572.176 155.367 571.751 154.321 571.751 153.08V96.926H551.759C550.583 96.926 549.603 96.534 548.819 95.75C548.035 94.966 547.643 93.986 547.643 92.81C547.643 91.634 548.035 90.654 548.819 89.87C549.603 89.0207 550.583 88.596 551.759 88.596H600.563C601.739 88.596 602.719 89.0207 603.503 89.87C604.352 90.654 604.777 91.634 604.777 92.81C604.777 93.986 604.352 94.966 603.503 95.75C602.719 96.534 601.739 96.926 600.563 96.926H580.669V153.08C580.669 154.321 580.212 155.367 579.297 156.216C578.448 157.065 577.402 157.49 576.161 157.49ZM643.483 157.98C636.623 157.98 630.613 156.477 625.451 153.472C620.29 150.467 616.305 146.318 613.495 141.026C610.686 135.734 609.216 129.658 609.085 122.798C609.216 115.938 610.686 109.862 613.495 104.57C616.305 99.278 620.29 95.1293 625.451 92.124C630.613 89.1187 636.623 87.616 643.483 87.616C650.343 87.616 656.321 89.1187 661.417 92.124C666.579 95.1293 670.564 99.3107 673.373 104.668C676.248 109.96 677.751 116.003 677.881 122.798C677.751 129.593 676.248 135.669 673.373 141.026C670.564 146.318 666.579 150.467 661.417 153.472C656.321 156.477 650.343 157.98 643.483 157.98ZM643.483 149.65C648.71 149.65 653.251 148.474 657.105 146.122C660.96 143.77 663.9 140.569 665.925 136.518C667.951 132.467 668.963 127.894 668.963 122.798C668.963 117.702 667.951 113.129 665.925 109.078C663.9 105.027 660.96 101.826 657.105 99.474C653.251 97.122 648.71 95.946 643.483 95.946C638.191 95.946 633.618 97.122 629.763 99.474C625.974 101.826 623.067 105.027 621.041 109.078C619.016 113.129 618.003 117.702 618.003 122.798C618.003 127.894 619.016 132.467 621.041 136.518C623.067 140.569 625.974 143.77 629.763 146.122C633.618 148.474 638.191 149.65 643.483 149.65ZM765.099 157H777.731L758.974 78.2842H756.725L707.438 157H721.889L728.875 145.276H762.515L765.099 157ZM735.048 134.893L753.375 104.124L760.218 134.893H735.048ZM786.345 157H798.786L804.002 130.251H814.625C832.952 130.251 844.628 120.441 846.781 105.799C849.174 89.6729 838.264 79.8633 824.387 79.8633H801.322L786.345 157ZM816.922 118.288L806.347 118.24L811.467 91.874H822.09C829.842 91.874 836.11 97.1377 834.866 105.703C833.67 113.312 827.306 118.336 816.922 118.288ZM906.213 104.794C908.749 88.9551 896.786 79.8633 883.771 79.8633H861.52L846.59 157H859.031L864.821 127.141H874.679L889.321 157H903.007L886.881 126.184C897.36 123.408 904.49 115.178 906.213 104.794ZM893.771 104.507C892.671 111.397 886.45 117.092 876.832 117.092H866.735L871.664 91.874H881.761C889.178 91.874 894.92 96.8506 893.771 104.507ZM956.17 73.499L949.758 57.8516H939.087L947.413 73.499H956.17ZM967.846 91.7783L970.143 79.8633H926.215L911.237 157H955.165L957.51 144.941H926.023L930.187 123.6H957.175L959.52 111.541H932.531L936.359 91.7783H967.846ZM991.341 158.292C1006.46 158.292 1016.99 149.631 1019.33 137.859C1021.58 126.997 1014.79 119.58 1003.93 113.216C997.227 109.388 989.953 106.182 991.197 99.4346C992.059 94.6494 996.796 90.3428 1003.02 90.3428C1008.9 90.3428 1013.93 93.7881 1015.31 99.2432L1025.17 92.5918C1023.21 84.6006 1015.22 78.4756 1004.79 78.4756C992.154 78.4756 981.483 86.1318 979.234 96.9941C976.603 109.818 985.312 115.991 992.824 120.394C998.71 123.839 1008.62 129.103 1007.04 137.094C1005.84 142.979 999.38 146.09 993.016 146.09C985.886 146.09 979.952 142.405 976.124 135.18L966.362 141.927C969.855 151.306 978.277 158.292 991.341 158.292ZM1078.24 158.292C1093.36 158.292 1103.89 149.631 1106.23 137.859C1108.48 126.997 1101.69 119.58 1090.82 113.216C1084.12 109.388 1076.85 106.182 1078.1 99.4346C1078.96 94.6494 1083.69 90.3428 1089.92 90.3428C1095.8 90.3428 1100.83 93.7881 1102.21 99.2432L1112.07 92.5918C1110.11 84.6006 1102.12 78.4756 1091.69 78.4756C1079.05 78.4756 1068.38 86.1318 1066.13 96.9941C1063.5 109.818 1072.21 115.991 1079.72 120.394C1085.61 123.839 1095.51 129.103 1093.93 137.094C1092.74 142.979 1086.28 146.09 1079.91 146.09C1072.78 146.09 1066.85 142.405 1063.02 135.18L1053.26 141.927C1056.75 151.306 1065.18 158.292 1078.24 158.292ZM1179.45 79.8633H1164.66L1133.41 115.943L1140.4 79.8633H1127.96L1112.98 157H1125.42L1133.08 117.522L1153.22 157H1166.72L1146.52 117.762L1179.45 79.8633ZM1175 157H1187.44L1202.41 79.8633H1189.97L1175 157Z" fill="black"/>
</svg>
