<svg width="899" height="264" viewBox="0 0 899 264" fill="none" xmlns="http://www.w3.org/2000/svg">
<path d="M794.063 250C785.388 250 778.355 243.197 778.355 234.805V29.1948C778.355 20.803 785.388 14 794.063 14C802.739 14 809.772 20.803 809.772 29.1953V234.805C809.772 243.197 802.739 250 794.063 250Z" fill="#FF4B22"/>
<path d="M809.772 29.1953C809.772 20.803 802.739 14 794.064 14C791.402 14 788.897 14.6425 786.7 15.7723C791.664 18.3254 795.045 23.3773 795.045 29.1948V234.804C795.045 240.622 791.664 245.674 786.7 248.227C788.897 249.357 791.402 250 794.064 250C802.739 250 809.772 243.197 809.772 234.804V29.1953Z" fill="#EF4722"/>
<path d="M778.355 45.5894H809.772V82.3072H778.355V45.5894Z" fill="#FFD740"/>
<path d="M795.045 45.5894H809.771V82.3072H795.045V45.5894Z" fill="#FFC400"/>
<path d="M778.355 193.315H809.772V230.033H778.355V193.315Z" fill="#4DD0E1"/>
<path d="M795.045 193.315H809.771V230.033H795.045V193.315Z" fill="#26C6DA"/>
<path d="M794.175 165.827H793.951C785.373 165.827 778.355 159.038 778.355 150.741V124.882C778.355 116.584 785.373 109.795 793.951 109.795H794.175C802.753 109.795 809.771 116.584 809.771 124.882V150.741C809.772 159.039 802.753 165.827 794.175 165.827Z" fill="#5788A1"/>
<path d="M794.063 165.828C802.739 165.828 809.772 159.025 809.772 150.632C809.772 142.24 802.739 135.437 794.063 135.437C785.388 135.437 778.355 142.24 778.355 150.632C778.355 159.025 785.388 165.828 794.063 165.828Z" fill="#4A758A"/>
<path d="M810.712 141.003H777.414C776.579 141.003 775.901 140.348 775.901 139.539V128.222C775.901 127.413 776.578 126.757 777.414 126.757H810.712C811.548 126.757 812.226 127.413 812.226 128.222V139.539C812.226 140.348 811.548 141.003 810.712 141.003Z" fill="#5C91AB"/>
<path d="M810.712 126.758H795.986C796.822 126.758 797.5 127.413 797.5 128.222V139.539C797.5 140.348 796.822 141.003 795.986 141.003H810.712C811.549 141.003 812.226 140.348 812.226 139.539V128.222C812.226 127.413 811.548 126.758 810.712 126.758Z" fill="#5788A1"/>
<path d="M844.133 250C835.458 250 828.425 243.197 828.425 234.805V29.1953C828.425 20.803 835.458 14 844.133 14C852.809 14 859.842 20.803 859.842 29.1953V234.805C859.842 243.197 852.809 250 844.133 250Z" fill="#FF4B22"/>
<path d="M859.842 29.1953C859.842 20.803 852.809 14 844.133 14C841.472 14 838.967 14.6425 836.77 15.7723C841.734 18.3254 845.115 23.3773 845.115 29.1948V234.804C845.115 240.622 841.734 245.674 836.77 248.227C838.967 249.357 841.472 250 844.133 250C852.809 250 859.842 243.197 859.842 234.804V29.1953Z" fill="#EF4722"/>
<path d="M828.425 45.5894H859.842V82.3072H828.425V45.5894Z" fill="#FFD740"/>
<path d="M845.115 45.5894H859.842V82.3072H845.115V45.5894Z" fill="#FFC400"/>
<path d="M828.425 193.315H859.842V230.033H828.425V193.315Z" fill="#4DD0E1"/>
<path d="M845.115 193.315H859.842V230.033H845.115V193.315Z" fill="#26C6DA"/>
<path d="M844.246 165.827H844.021C835.443 165.827 828.426 159.038 828.426 150.741V124.882C828.426 116.584 835.444 109.795 844.021 109.795H844.246C852.824 109.795 859.842 116.584 859.842 124.882V150.741C859.842 159.039 852.823 165.827 844.246 165.827Z" fill="#5788A1"/>
<path d="M844.133 165.828C852.809 165.828 859.842 159.025 859.842 150.632C859.842 142.24 852.809 135.437 844.133 135.437C835.458 135.437 828.425 142.24 828.425 150.632C828.425 159.025 835.458 165.828 844.133 165.828Z" fill="#4A758A"/>
<path d="M860.782 141.003H827.484C826.649 141.003 825.97 140.348 825.97 139.539V128.222C825.97 127.413 826.648 126.757 827.484 126.757H860.782C861.618 126.757 862.296 127.413 862.296 128.222V139.539C862.296 140.348 861.619 141.003 860.782 141.003Z" fill="#5C91AB"/>
<path d="M860.782 126.758H846.056C846.892 126.758 847.57 127.413 847.57 128.222V139.539C847.57 140.348 846.892 141.003 846.056 141.003H860.782C861.619 141.003 862.296 140.348 862.296 139.539V128.222C862.296 127.413 861.619 126.758 860.782 126.758Z" fill="#5788A1"/>
<path d="M759.264 55.4456H754.987V35.6055C754.987 33.6959 753.389 32.1485 751.417 32.1485C749.445 32.1485 747.847 33.6959 747.847 35.6055V55.4456H743.57C741.598 55.4456 740 56.993 740 58.9027C740 60.8123 741.598 62.3597 743.57 62.3597H747.847V228.394C747.847 230.304 749.445 231.852 751.417 231.852C753.389 231.852 754.987 230.304 754.987 228.394V62.3597H759.264C761.236 62.3597 762.834 60.8123 762.834 58.9027C762.834 56.993 761.236 55.4456 759.264 55.4456Z" fill="#5C91AB"/>
<path d="M894.627 55.4456H890.351V35.6055C890.351 33.6958 888.753 32.1485 886.781 32.1485C884.809 32.1485 883.21 33.6958 883.21 35.6055V55.4456H878.934C876.961 55.4456 875.363 56.993 875.363 58.9027C875.363 60.8123 876.961 62.3597 878.934 62.3597H883.21V228.394C883.21 230.304 884.809 231.851 886.781 231.851C888.753 231.851 890.351 230.304 890.351 228.394V62.3597H894.627C896.6 62.3597 898.198 60.8123 898.198 58.9027C898.198 56.993 896.6 55.4456 894.627 55.4456Z" fill="#5C91AB"/>
<path d="M47.5602 105.49C46.2536 105.49 45.0776 105.131 44.0322 104.412C43.0522 103.628 42.3009 102.517 41.7782 101.08L22.5702 42.084C22.3742 41.3653 22.2762 40.81 22.2762 40.418C22.2109 39.1767 22.5702 38.164 23.3542 37.38C24.2036 36.5307 25.2816 36.106 26.5882 36.106C27.6336 36.106 28.5482 36.4327 29.3322 37.086C30.1162 37.7393 30.6716 38.5887 30.9982 39.634L47.4622 93.73L64.0242 39.83C64.3509 38.7193 64.9716 37.8373 65.8862 37.184C66.8662 36.4653 67.9442 36.106 69.1202 36.106C70.2962 36.106 71.3416 36.4653 72.2562 37.184C73.2362 37.8373 73.8896 38.7193 74.2162 39.83L90.7782 93.73L107.242 39.634C107.569 38.5887 108.124 37.7393 108.908 37.086C109.692 36.4327 110.607 36.106 111.652 36.106C112.959 36.106 114.004 36.5307 114.788 37.38C115.638 38.164 116.03 39.1767 115.964 40.418C115.964 40.81 115.866 41.3653 115.67 42.084L96.4622 101.08C95.9396 102.517 95.1556 103.628 94.1102 104.412C93.1302 105.131 91.9869 105.49 90.6802 105.49C89.3736 105.49 88.1649 105.098 87.0542 104.314C86.0089 103.465 85.2902 102.387 84.8982 101.08L69.1202 51.1L53.3422 101.08C52.9502 102.387 52.1989 103.465 51.0882 104.314C50.0429 105.098 48.8669 105.49 47.5602 105.49ZM132.501 105C131.26 105 130.214 104.575 129.365 103.726C128.516 102.877 128.091 101.831 128.091 100.59V41.104C128.091 39.8627 128.516 38.8173 129.365 37.968C130.214 37.0533 131.26 36.596 132.501 36.596H171.799C172.975 36.596 173.955 37.0207 174.739 37.87C175.588 38.654 176.013 39.634 176.013 40.81C176.013 41.986 175.588 42.966 174.739 43.75C173.955 44.534 172.975 44.926 171.799 44.926H137.009V66.584H168.271C169.447 66.584 170.427 67.0087 171.211 67.858C172.06 68.642 172.485 69.622 172.485 70.798C172.485 71.974 172.06 72.954 171.211 73.738C170.427 74.522 169.447 74.914 168.271 74.914H137.009V96.67H171.799C172.975 96.67 173.955 97.0947 174.739 97.944C175.588 98.728 176.013 99.708 176.013 100.884C176.013 102.06 175.588 103.04 174.739 103.824C173.955 104.608 172.975 105 171.799 105H132.501ZM196.759 105C195.06 105 193.59 104.412 192.349 103.236C191.173 101.995 190.585 100.525 190.585 98.826V40.614C190.585 39.3727 191.01 38.3273 191.859 37.478C192.708 36.5633 193.754 36.106 194.995 36.106C196.236 36.106 197.282 36.5633 198.131 37.478C199.046 38.3273 199.503 39.3727 199.503 40.614V96.082H231.549C232.79 96.082 233.836 96.5393 234.685 97.454C235.6 98.3033 236.057 99.3487 236.057 100.59C236.057 101.831 235.6 102.877 234.685 103.726C233.836 104.575 232.79 105 231.549 105H196.759ZM277.234 105.98C270.701 105.98 264.821 104.575 259.594 101.766C254.433 98.8913 250.349 94.808 247.344 89.516C244.404 84.1587 242.934 77.9193 242.934 70.798C242.934 63.6767 244.404 57.47 247.344 52.178C250.349 46.8207 254.433 42.7373 259.594 39.928C264.821 37.0533 270.701 35.616 277.234 35.616C281.677 35.616 285.629 36.1387 289.092 37.184C292.62 38.2293 296.115 39.732 299.578 41.692C301.015 42.476 301.734 43.7173 301.734 45.416C301.734 46.396 301.375 47.278 300.656 48.062C299.937 48.7807 298.99 49.14 297.814 49.14C297.161 49.14 296.573 49.0093 296.05 48.748C293.175 47.2453 290.366 46.102 287.622 45.318C284.878 44.534 281.709 44.142 278.116 44.142C272.497 44.142 267.695 45.318 263.71 47.67C259.79 49.9567 256.817 53.1253 254.792 57.176C252.832 61.1613 251.852 65.702 251.852 70.798C251.852 75.894 252.832 80.4673 254.792 84.518C256.817 88.5033 259.79 91.672 263.71 94.024C267.695 96.3107 272.497 97.454 278.116 97.454C281.709 97.454 284.878 97.062 287.622 96.278C290.366 95.494 293.175 94.3507 296.05 92.848C296.573 92.5867 297.161 92.456 297.814 92.456C298.99 92.456 299.937 92.8153 300.656 93.534C301.375 94.2527 301.734 95.1347 301.734 96.18C301.734 97.8787 301.015 99.12 299.578 99.904C296.115 101.864 292.62 103.367 289.092 104.412C285.629 105.457 281.677 105.98 277.234 105.98ZM343.559 105.98C336.699 105.98 330.688 104.477 325.527 101.472C320.365 98.4667 316.38 94.318 313.571 89.026C310.761 83.734 309.291 77.658 309.161 70.798C309.291 63.938 310.761 57.862 313.571 52.57C316.38 47.278 320.365 43.1293 325.527 40.124C330.688 37.1187 336.699 35.616 343.559 35.616C350.419 35.616 356.397 37.1187 361.493 40.124C366.654 43.1293 370.639 47.3107 373.449 52.668C376.323 57.96 377.826 64.0033 377.957 70.798C377.826 77.5927 376.323 83.6687 373.449 89.026C370.639 94.318 366.654 98.4667 361.493 101.472C356.397 104.477 350.419 105.98 343.559 105.98ZM343.559 97.65C348.785 97.65 353.326 96.474 357.181 94.122C361.035 91.77 363.975 88.5687 366.001 84.518C368.026 80.4673 369.039 75.894 369.039 70.798C369.039 65.702 368.026 61.1287 366.001 57.078C363.975 53.0273 361.035 49.826 357.181 47.474C353.326 45.122 348.785 43.946 343.559 43.946C338.267 43.946 333.693 45.122 329.839 47.474C326.049 49.826 323.142 53.0273 321.117 57.078C319.091 61.1287 318.079 65.702 318.079 70.798C318.079 75.894 319.091 80.4673 321.117 84.518C323.142 88.5687 326.049 91.77 329.839 94.122C333.693 96.474 338.267 97.65 343.559 97.65ZM397.216 105.49C395.974 105.49 394.929 105.065 394.08 104.216C393.23 103.367 392.806 102.321 392.806 101.08V42.574C392.806 40.81 393.426 39.3073 394.668 38.066C395.909 36.7593 397.412 36.106 399.176 36.106H402.41C403.716 36.106 404.892 36.498 405.938 37.282C407.048 38.066 407.865 39.046 408.388 40.222L430.634 95.69L452.88 40.222C453.402 39.046 454.186 38.066 455.232 37.282C456.342 36.498 457.551 36.106 458.858 36.106H462.092C463.856 36.106 465.358 36.7593 466.6 38.066C467.841 39.3073 468.462 40.81 468.462 42.574V101.08C468.462 102.321 468.037 103.367 467.188 104.216C466.338 105.065 465.293 105.49 464.052 105.49C462.81 105.49 461.732 105.065 460.818 104.216C459.968 103.367 459.544 102.321 459.544 101.08V45.416L436.906 101.374C436.383 102.615 435.534 103.628 434.358 104.412C433.247 105.131 432.006 105.49 430.634 105.49C429.262 105.49 427.988 105.131 426.812 104.412C425.701 103.628 424.884 102.615 424.362 101.374L401.724 45.416V101.08C401.724 102.321 401.266 103.367 400.352 104.216C399.502 105.065 398.457 105.49 397.216 105.49ZM491.866 105C490.625 105 489.58 104.575 488.73 103.726C487.881 102.877 487.456 101.831 487.456 100.59V41.104C487.456 39.8627 487.881 38.8173 488.73 37.968C489.58 37.0533 490.625 36.596 491.866 36.596H531.164C532.34 36.596 533.32 37.0207 534.104 37.87C534.954 38.654 535.378 39.634 535.378 40.81C535.378 41.986 534.954 42.966 534.104 43.75C533.32 44.534 532.34 44.926 531.164 44.926H496.374V66.584H527.636C528.812 66.584 529.792 67.0087 530.576 67.858C531.426 68.642 531.85 69.622 531.85 70.798C531.85 71.974 531.426 72.954 530.576 73.738C529.792 74.522 528.812 74.914 527.636 74.914H496.374V96.67H531.164C532.34 96.67 533.32 97.0947 534.104 97.944C534.954 98.728 535.378 99.708 535.378 100.884C535.378 102.06 534.954 103.04 534.104 103.824C533.32 104.608 532.34 105 531.164 105H491.866ZM595.693 105.49C594.452 105.49 593.407 105.065 592.557 104.216C591.708 103.367 591.283 102.321 591.283 101.08V44.926H571.291C570.115 44.926 569.135 44.534 568.351 43.75C567.567 42.966 567.175 41.986 567.175 40.81C567.175 39.634 567.567 38.654 568.351 37.87C569.135 37.0207 570.115 36.596 571.291 36.596H620.095C621.271 36.596 622.251 37.0207 623.035 37.87C623.885 38.654 624.309 39.634 624.309 40.81C624.309 41.986 623.885 42.966 623.035 43.75C622.251 44.534 621.271 44.926 620.095 44.926H600.201V101.08C600.201 102.321 599.744 103.367 598.829 104.216C597.98 105.065 596.935 105.49 595.693 105.49ZM663.016 105.98C656.156 105.98 650.145 104.477 644.984 101.472C639.822 98.4667 635.837 94.318 633.028 89.026C630.218 83.734 628.748 77.658 628.618 70.798C628.748 63.938 630.218 57.862 633.028 52.57C635.837 47.278 639.822 43.1293 644.984 40.124C650.145 37.1187 656.156 35.616 663.016 35.616C669.876 35.616 675.854 37.1187 680.95 40.124C686.111 43.1293 690.096 47.3107 692.906 52.668C695.78 57.96 697.283 64.0033 697.414 70.798C697.283 77.5927 695.78 83.6687 692.906 89.026C690.096 94.318 686.111 98.4667 680.95 101.472C675.854 104.477 669.876 105.98 663.016 105.98ZM663.016 97.65C668.242 97.65 672.783 96.474 676.638 94.122C680.492 91.77 683.432 88.5687 685.458 84.518C687.483 80.4673 688.496 75.894 688.496 70.798C688.496 65.702 687.483 61.1287 685.458 57.078C683.432 53.0273 680.492 49.826 676.638 47.474C672.783 45.122 668.242 43.946 663.016 43.946C657.724 43.946 653.15 45.122 649.296 47.474C645.506 49.826 642.599 53.0273 640.574 57.078C638.548 61.1287 637.536 65.702 637.536 70.798C637.536 75.894 638.548 80.4673 640.574 84.518C642.599 88.5687 645.506 91.77 649.296 94.122C653.15 96.474 657.724 97.65 663.016 97.65ZM184.381 237H197.014L178.256 158.284H176.007L126.72 237H141.171L148.157 225.276H181.797L184.381 237ZM154.33 214.893L172.657 184.124L179.5 214.893H154.33ZM205.627 237H218.068L223.284 210.251H233.907C252.234 210.251 263.91 200.441 266.063 185.799C268.456 169.673 257.546 159.863 243.669 159.863H220.604L205.627 237ZM236.204 198.288L225.629 198.24L230.749 171.874H241.372C249.124 171.874 255.393 177.138 254.148 185.703C252.952 193.312 246.588 198.336 236.204 198.288ZM325.495 184.794C328.031 168.955 316.068 159.863 303.053 159.863H280.802L265.872 237H278.313L284.104 207.141H293.961L308.604 237H322.289L306.163 206.184C316.643 203.408 323.772 195.178 325.495 184.794ZM313.054 184.507C311.953 191.397 305.732 197.092 296.114 197.092H286.018L290.946 171.874H301.043C308.46 171.874 314.202 176.851 313.054 184.507ZM375.452 153.499L369.04 137.852H358.369L366.695 153.499H375.452ZM387.128 171.778L389.425 159.863H345.497L330.52 237H374.447L376.792 224.941H345.306L349.469 203.6H376.457L378.802 191.541H351.813L355.642 171.778H387.128ZM410.623 238.292C425.744 238.292 436.271 229.631 438.616 217.859C440.865 206.997 434.07 199.58 423.208 193.216C416.509 189.388 409.235 186.182 410.479 179.435C411.341 174.649 416.078 170.343 422.299 170.343C428.185 170.343 433.209 173.788 434.597 179.243L444.454 172.592C442.492 164.601 434.501 158.476 424.069 158.476C411.437 158.476 400.766 166.132 398.517 176.994C395.885 189.818 404.594 195.991 412.106 200.394C417.992 203.839 427.897 209.103 426.318 217.094C425.122 222.979 418.662 226.09 412.298 226.09C405.168 226.09 399.234 222.405 395.406 215.18L385.645 221.927C389.138 231.306 397.56 238.292 410.623 238.292ZM497.521 238.292C512.643 238.292 523.17 229.631 525.515 217.859C527.764 206.997 520.969 199.58 510.106 193.216C503.407 189.388 496.134 186.182 497.378 179.435C498.239 174.649 502.977 170.343 509.197 170.343C515.083 170.343 520.107 173.788 521.495 179.243L531.353 172.592C529.391 164.601 521.399 158.476 510.968 158.476C498.335 158.476 487.664 166.132 485.415 176.994C482.783 189.818 491.492 195.991 499.005 200.394C504.891 203.839 514.796 209.103 513.217 217.094C512.021 222.979 505.561 226.09 499.196 226.09C492.066 226.09 486.133 222.405 482.305 215.18L472.543 221.927C476.036 231.306 484.458 238.292 497.521 238.292ZM598.728 159.863H583.941L552.694 195.943L559.681 159.863H547.239L532.262 237H544.703L552.359 197.522L572.505 237H585.999L565.806 197.762L598.728 159.863ZM594.277 237H606.719L621.696 159.863H609.255L594.277 237Z" fill="black"/>
</svg>
