<svg id="Layer_1" height="512" viewBox="0 0 512 512" width="512" xmlns="http://www.w3.org/2000/svg" data-name="Layer 1"><circle cx="103.5" cy="471.389" fill="#74d7ed" r="32.5"/><circle cx="378.5" cy="311.389" fill="#d1f2f1" r="32.5"/><path d="m458.814 52.684-.02-.037c-15.585-29.08-46.555-47.469-80.825-47.99h-.158c-34.269.521-65.24 18.91-80.845 48.027a95.388 95.388 0 0 0 -10.779 53.931c1.49 16.226 7.015 33.479 16.421 51.279 16.823 31.836 43.338 60.887 66.87 85.619l.12.121c1.75 1.723 4.491 3.993 8.2 3.993h.18c3.711 0 6.452-2.27 8.2-3.993l.12-.121c23.532-24.732 50.047-53.783 66.87-85.619 9.406-17.8 14.931-35.053 16.421-51.279a95.38 95.38 0 0 0 -10.775-53.931z" fill="#d1f2f1"/><circle cx="377.89" cy="96.58" fill="#74d7ed" r="45.882"/><path d="m177.938 214.917-.02-.038c-15.585-29.08-46.556-47.468-80.825-47.989h-.158c-34.269.521-65.24 18.909-80.845 48.027a95.38 95.38 0 0 0 -10.779 53.931c1.49 16.226 7.015 33.479 16.421 51.279 16.823 31.835 43.338 60.887 66.87 85.618l.12.122c1.75 1.723 4.491 3.993 8.2 3.993h.18c3.711 0 6.452-2.27 8.2-3.993l.12-.122c23.532-24.731 50.047-53.783 66.87-85.618 9.406-17.8 14.931-35.053 16.421-51.279a95.388 95.388 0 0 0 -10.775-53.931z" fill="#74d7ed"/><circle cx="97.014" cy="258.813" fill="#d1f2f1" r="45.882"/><g fill="#0274d1"><path d="m85.154 410.711c1.43 1.408 5.731 5.642 12.231 5.642h.094c6.574.047 10.888-4.227 12.326-5.642l.252-.257c39.728-41.754 113.675-119.468 73.112-196.654l-.042-.079c-16.51-30.8-49.264-50.28-85.481-50.829h-.167-.167c-36.217.549-68.971 20.026-85.521 50.908-40.563 77.185 33.384 154.9 73.109 196.654zm-53.932-186.595c12.713-23.72 38.089-38.738 66.257-39.222 28.154.484 53.519 15.487 66.239 39.187 29.919 57-17.642 116.222-66.239 167.666-48.608-51.458-96.179-110.692-66.257-167.631z"/><path d="m151.5 261.41a54.019 54.019 0 1 0 -54.019 54.018 54.08 54.08 0 0 0 54.019-54.018zm-86.038 0a32.02 32.02 0 1 1 32.019 32.019 32.056 32.056 0 0 1 -32.021-32.019z"/><path d="m366.112 247.819c1.43 1.408 5.731 5.642 12.232 5.642h.187c6.5 0 10.8-4.234 12.232-5.642l.252-.257c39.728-41.752 113.674-119.468 73.111-196.651l-.042-.079c-16.508-30.802-49.262-50.279-85.484-50.832h-.167-.167c-36.217.55-68.971 20.026-85.522 50.908-40.564 77.184 33.384 154.9 73.112 196.651zm-53.932-186.595c12.713-23.719 38.089-38.737 66.257-39.224 28.155.485 53.52 15.486 66.238 39.186 29.918 57-17.641 116.222-66.238 167.666-48.609-51.452-96.182-110.687-66.257-167.628z"/><path d="m432.455 98.518a54.019 54.019 0 1 0 -54.018 54.019 54.08 54.08 0 0 0 54.018-54.019zm-86.038 0a32.02 32.02 0 1 1 32.02 32.02 32.057 32.057 0 0 1 -32.02-32.02z"/><path d="m363.408 276.337a37.856 37.856 0 0 0 -22.122 44.56l-25.443 14.945a11 11 0 1 0 11.142 18.969l25.852-15.185a38.037 38.037 0 0 0 25.054 9.461 37.807 37.807 0 1 0 -14.483-72.75zm20.468 49.554a15.808 15.808 0 1 1 8.575-20.645 15.824 15.824 0 0 1 -8.575 20.645z"/><path d="m155.209 430.194-23.195 13.624a39.93 39.93 0 1 0 10.663 19.25l23.674-13.9a11 11 0 0 0 -11.142-18.969zm-34.881 48.727a17.941 17.941 0 1 1 .013-13.73 17.823 17.823 0 0 1 -.013 13.73z"/><path d="m218.867 392.8-30.341 17.822a11 11 0 1 0 11.142 18.968l30.341-17.821a11 11 0 0 0 -11.142-18.969z"/><path d="m282.526 355.411-30.342 17.823a11 11 0 1 0 11.142 18.966l30.342-17.823a11 11 0 0 0 -11.142-18.969z"/></g></svg>