<?xml version="1.0" encoding="UTF-8" standalone="no"?>
<!-- Created with Inkscape (http://www.inkscape.org/) -->

<svg
   version="1.1"
   id="svg4407"
   width="682.66669"
   height="682.66669"
   viewBox="0 0 682.66669 682.66669"
   xmlns="http://www.w3.org/2000/svg"
   xmlns:svg="http://www.w3.org/2000/svg">
  <defs
     id="defs4411">
    <clipPath
       clipPathUnits="userSpaceOnUse"
       id="clipPath4421">
      <path
         d="M 0,512 H 512 V 0 H 0 Z"
         id="path4419" />
    </clipPath>
  </defs>
  <g
     id="g4413"
     transform="matrix(1.3333333,0,0,-1.3333333,0,682.66667)">
    <g
       id="g4415">
      <g
         id="g4417"
         clip-path="url(#clipPath4421)">
        <g
           id="g4423"
           transform="translate(502,257.27)">
          <path
             d="m 0,0 c 0,-135.31 -109.69,-245 -245,-245 -71.33,0 -135.54,30.48 -180.31,79.13 -11.76,12.77 -22.17,26.8 -31.03,41.85 C -477.73,-87.64 -490,-45.25 -490,0 c 0,135.31 109.69,245 245,245 45.26,0 87.65,-12.27 124.02,-33.67 15.05,-8.85 29.07,-19.26 41.84,-31.03 C -30.49,135.55 0,71.33 0,0"
             style="fill:#f0cd00;fill-opacity:1;fill-rule:nonzero;stroke:none"
             id="path4425" />
        </g>
        <g
           id="g4427"
           transform="translate(502,257.27)">
          <path
             d="m 0,0 c 0,-132.26 -104.79,-240.04 -235.88,-244.83 -131.09,4.79 -235.88,112.57 -235.88,244.83 0,132.26 104.79,240.04 235.88,244.83 C -104.79,240.04 0,132.26 0,0"
             style="fill:#ffde50;fill-opacity:1;fill-rule:nonzero;stroke:none"
             id="path4429" />
        </g>
        <g
           id="g4431"
           transform="translate(422.8604,437.5698)">
          <path
             d="m 0,0 -346.17,-346.17 c -11.761,12.77 -22.171,26.8 -31.03,41.85 L -41.841,31.03 C -26.79,22.18 -12.771,11.77 0,0"
             style="fill:#ffea94;fill-opacity:1;fill-rule:nonzero;stroke:none"
             id="path4433" />
        </g>
        <g
           id="g4435"
           transform="translate(485.0996,346.8398)">
          <path
             d="m 0,0 -317.68,-317.68 c -22.49,8.84 -43.36,20.91 -62.03,35.64 L -35.63,62.04 C -20.899,43.37 -8.83,22.5 0,0"
             style="fill:#ffea94;fill-opacity:1;fill-rule:nonzero;stroke:none"
             id="path4437" />
        </g>
        <g
           id="g4439"
           transform="translate(447.3799,257.27)">
          <path
             d="m 0,0 c 0,-105.14 -85.24,-190.38 -190.38,-190.38 -36.62,0 -70.82,10.34 -99.849,28.26 -12.651,7.8 -24.311,17.05 -34.771,27.51 -7.689,7.68 -14.729,16.03 -21.02,24.94 -8.66,12.27 -15.91,25.61 -21.5,39.78 -8.28,20.95 -12.94,43.73 -13.22,67.55 -0.02,0.78 -0.02,1.56 -0.02,2.34 0,105.14 85.23,190.38 190.38,190.38 0.78,0 1.57,0 2.35,-0.02 23.82,-0.28 46.591,-4.95 67.54,-13.22 14.17,-5.6 27.511,-12.84 39.78,-21.5 8.91,-6.3 17.25,-13.33 24.94,-21.02 10.46,-10.45 19.71,-22.12 27.51,-34.77 C -10.34,70.82 0,36.62 0,0"
             style="fill:#faa300;fill-opacity:1;fill-rule:nonzero;stroke:none"
             id="path4441" />
        </g>
        <g
           id="g4443"
           transform="translate(391.6104,391.8901)">
          <path
             d="m 0,0 -269.23,-269.23 c -7.69,7.68 -14.73,16.03 -21.02,24.94 -8.66,12.27 -15.91,25.61 -21.5,39.78 -8.28,20.95 -12.94,43.73 -13.221,67.55 -0.019,0.78 -0.019,1.56 -0.019,2.34 0,105.14 85.229,190.38 190.38,190.38 0.78,0 1.57,0 2.349,-0.02 23.821,-0.28 46.591,-4.95 67.54,-13.22 14.17,-5.6 27.511,-12.84 39.781,-21.5 C -16.03,14.72 -7.69,7.69 0,0"
             style="fill:#ffbd00;fill-opacity:1;fill-rule:nonzero;stroke:none"
             id="path4445" />
        </g>
        <g
           id="g4447"
           transform="translate(447.375,257.27)">
          <path
             d="m 0,0 c 0,-105.14 -85.24,-190.38 -190.38,-190.38 -3.61,0 -7.19,0.1 -10.75,0.3 100.14,5.57 179.62,88.55 179.62,190.08 0,101.53 -79.48,184.51 -179.62,190.08 3.56,0.2 7.14,0.3 10.75,0.3 C -85.24,190.38 0,105.14 0,0"
             style="fill:#f68e00;fill-opacity:1;fill-rule:nonzero;stroke:none"
             id="path4449" />
        </g>
        <g
           id="g4451"
           transform="translate(89.7061,436.2642)">
          <path
             d="m 0,0 c -47.82,-44.712 -77.709,-108.363 -77.709,-178.995 0,-135.31 109.69,-245 245,-245 135.31,0 245,109.69 245,245 0,135.309 -109.69,245 -245,245 -52.048,0 -100.306,-16.23 -139.987,-43.905"
             style="fill:none;stroke:#000000;stroke-width:15;stroke-linecap:round;stroke-linejoin:round;stroke-miterlimit:10;stroke-dasharray:none;stroke-opacity:1"
             id="path4453" />
        </g>
        <g
           id="g4455"
           transform="translate(447.375,257.269)">
          <path
             d="m 0,0 c 0,-105.143 -85.235,-190.378 -190.378,-190.378 -105.143,0 -190.379,85.235 -190.379,190.378 0,105.143 85.236,190.378 190.379,190.378 C -85.235,190.378 0,105.143 0,0 Z"
             style="fill:none;stroke:#000000;stroke-width:15;stroke-linecap:round;stroke-linejoin:round;stroke-miterlimit:10;stroke-dasharray:none;stroke-opacity:1"
             id="path4457" />
        </g>
        <g
           id="g4459"
           transform="translate(250.7285,165.5381)">
          <path
             d="M 0,0 V 66.521 C 16.28,58.939 20.176,48.092 20.176,34.089 20.176,19.422 12.016,6.629 0,0 m -49.503,125.117 c -3.79,3.789 -8.139,9.971 -8.139,24.256 0,14.667 8.16,27.46 20.175,34.089 v -66.316 c -5.052,2.341 -9.052,4.986 -12.036,7.971 M 0,106.361 v 77.101 c 12.016,-6.629 20.176,-19.422 20.176,-34.089 0,-10.347 8.386,-18.733 18.732,-18.733 10.347,0 18.734,8.386 18.734,18.733 0,35.651 -24.557,65.669 -57.642,74.043 v 15.247 c 0,10.346 -8.387,18.733 -18.733,18.733 -10.346,0 -18.734,-8.387 -18.734,-18.733 v -15.247 c -33.084,-8.374 -57.641,-38.392 -57.641,-74.043 0,-21.288 6.252,-37.888 19.113,-50.748 9.376,-9.377 21.833,-16.316 38.528,-21.403 V 0 c -12.015,6.629 -20.175,19.422 -20.175,34.089 0,10.347 -8.387,18.733 -18.733,18.733 -10.347,0 -18.733,-8.386 -18.733,-18.733 0,-35.651 24.557,-65.668 57.641,-74.043 v -15.247 c 0,-10.346 8.388,-18.733 18.734,-18.733 10.346,0 18.733,8.387 18.733,18.733 v 15.247 c 33.085,8.375 57.642,38.392 57.642,74.043 0,20.992 -6.521,38.156 -19.378,51.014 C 28.919,94.448 16.307,101.454 0,106.361"
             style="fill:#f68e00;fill-opacity:1;fill-rule:nonzero;stroke:none"
             id="path4461" />
        </g>
        <g
           id="g4463"
           transform="translate(275.7295,165.5381)">
          <path
             d="M 0,0 V 66.521 C 16.281,58.939 20.176,48.092 20.176,34.089 20.176,19.422 12.017,6.629 0,0 m -49.502,125.117 c -3.79,3.789 -8.14,9.971 -8.14,24.256 0,14.667 8.161,27.46 20.176,34.089 v -66.316 c -5.052,2.341 -9.052,4.986 -12.036,7.971 M 0,106.361 v 77.101 c 12.017,-6.629 20.176,-19.422 20.176,-34.089 0,-10.347 8.386,-18.733 18.733,-18.733 10.346,0 18.734,8.386 18.734,18.733 0,35.651 -24.558,65.669 -57.643,74.043 v 15.247 c 0,10.346 -8.387,18.733 -18.732,18.733 -10.347,0 -18.734,-8.387 -18.734,-18.733 v -15.247 c -33.085,-8.374 -57.641,-38.392 -57.641,-74.043 0,-21.288 6.252,-37.888 19.112,-50.748 9.377,-9.377 21.833,-16.316 38.529,-21.403 V 0 c -12.015,6.629 -20.176,19.422 -20.176,34.089 0,10.347 -8.386,18.733 -18.732,18.733 -10.347,0 -18.733,-8.386 -18.733,-18.733 0,-35.651 24.556,-65.668 57.641,-74.043 v -15.247 c 0,-10.346 8.387,-18.733 18.734,-18.733 10.345,0 18.732,8.387 18.732,18.733 v 15.247 c 33.085,8.375 57.643,38.392 57.643,74.043 0,20.992 -6.521,38.156 -19.378,51.014 C 28.919,94.448 16.308,101.454 0,106.361"
             style="fill:#ffea94;fill-opacity:1;fill-rule:nonzero;stroke:none"
             id="path4465" />
        </g>
        <g
           id="g4467"
           transform="translate(275.7295,165.5381)">
          <path
             d="M 0,0 V 66.521 C 16.281,58.939 20.176,48.092 20.176,34.089 20.176,19.422 12.017,6.629 0,0 Z m -49.502,125.117 c -3.79,3.789 -8.14,9.971 -8.14,24.256 0,14.667 8.161,27.46 20.176,34.089 v -66.316 c -5.052,2.341 -9.052,4.986 -12.036,7.971 z M 41.229,-13.161 c 10.274,13.007 16.414,29.425 16.414,47.25 0,20.992 -6.521,38.156 -19.378,51.014 C 28.919,94.448 16.308,101.454 0,106.361 v 77.101 c 12.017,-6.629 20.176,-19.422 20.176,-34.089 0,-10.347 8.386,-18.733 18.733,-18.733 10.346,0 18.734,8.386 18.734,18.733 0,35.651 -24.558,65.669 -57.643,74.043 v 15.247 c 0,10.346 -8.387,18.733 -18.732,18.733 -10.347,0 -18.734,-8.387 -18.734,-18.733 v -15.247 c -33.085,-8.374 -57.641,-38.392 -57.641,-74.043 0,-21.288 6.252,-37.888 19.112,-50.748 9.377,-9.377 21.833,-16.316 38.529,-21.403 V 0 c -12.015,6.629 -20.176,19.422 -20.176,34.089 0,10.347 -8.386,18.733 -18.732,18.733 -10.347,0 -18.733,-8.386 -18.733,-18.733 0,-35.651 24.556,-65.668 57.641,-74.043 v -15.247 c 0,-10.346 8.387,-18.733 18.734,-18.733 10.345,0 18.732,8.387 18.732,18.733 v 15.247 c 6.735,1.705 13.116,4.307 19.009,7.669"
             style="fill:none;stroke:#000000;stroke-width:15;stroke-linecap:round;stroke-linejoin:round;stroke-miterlimit:10;stroke-dasharray:none;stroke-opacity:1"
             id="path4469" />
        </g>
      </g>
    </g>
  </g>
</svg>
