<?xml version="1.0" encoding="UTF-8" standalone="no"?>
<!-- Created with Inkscape (http://www.inkscape.org/) -->

<svg
   version="1.1"
   id="svg1800"
   xml:space="preserve"
   width="682.66669"
   height="682.66669"
   viewBox="0 0 682.66669 682.66669"
   xmlns="http://www.w3.org/2000/svg"
   xmlns:svg="http://www.w3.org/2000/svg"><defs
     id="defs1804"><clipPath
       clipPathUnits="userSpaceOnUse"
       id="clipPath1814"><path
         d="M 0,512 H 512 V 0 H 0 Z"
         id="path1812" /></clipPath></defs><g
     id="g1806"
     transform="matrix(1.3333333,0,0,-1.3333333,0,682.66667)"><g
       id="g1808"><g
         id="g1810"
         clip-path="url(#clipPath1814)"><g
           id="g1816"
           transform="translate(229.168,477.668)"><path
             d="m 0,0 c -122.424,0 -221.668,-99.244 -221.668,-221.668 0,-122.424 99.244,-221.668 221.668,-221.668 122.424,0 221.668,99.244 221.668,221.668 C 221.668,-99.244 122.424,0 0,0"
             style="fill:#f9efaf;fill-opacity:1;fill-rule:nonzero;stroke:none"
             id="path1818" /></g><g
           id="g1820"
           transform="translate(307.6758,463.3638)"><path
             d="m 0,0 c 62.002,-39.298 103.161,-108.524 103.161,-187.364 0,-122.424 -99.244,-221.668 -221.669,-221.668 -27.642,0 -54.104,5.06 -78.507,14.304 34.276,-21.725 74.923,-34.304 118.507,-34.304 122.425,0 221.669,99.244 221.669,221.668 C 143.161,-112.583 83.674,-31.696 0,0"
             style="fill:#f6e781;fill-opacity:1;fill-rule:nonzero;stroke:none"
             id="path1822" /></g><g
           id="g1824"
           transform="translate(49.2231,256)"><path
             d="m 0,0 c 0,-99.381 80.564,-179.945 179.945,-179.945 99.381,0 179.945,80.564 179.945,179.945 0,99.381 -80.564,179.945 -179.945,179.945 C 80.564,179.945 0,99.381 0,0"
             style="fill:#f6e266;fill-opacity:1;fill-rule:nonzero;stroke:none"
             id="path1826" /></g><g
           id="g1828"
           transform="translate(288.9258,425.7847)"><path
             d="m 0,0 c 48.343,-32.261 80.188,-87.304 80.188,-149.785 0,-99.381 -80.565,-179.945 -179.946,-179.945 -20.948,0 -41.059,3.58 -59.757,10.161 28.551,-19.054 62.857,-30.161 99.757,-30.161 99.381,0 179.946,80.564 179.946,179.945 C 120.188,-91.352 70.007,-24.639 0,0"
             style="fill:#f1d333;fill-opacity:1;fill-rule:nonzero;stroke:none"
             id="path1830" /></g><g
           id="g1832"
           transform="translate(282.832,477.668)"><path
             d="M 0,0 C 122.424,0 221.668,-99.244 221.668,-221.668 221.668,-344.092 122.424,-443.336 0,-443.336 h -53.664 c 122.424,0 221.668,99.244 221.668,221.668 C 168.004,-99.244 68.76,0 -53.664,0 Z"
             style="fill:#f1d333;fill-opacity:1;fill-rule:nonzero;stroke:none"
             id="path1834" /></g><g
           id="g1836"
           transform="translate(299.3916,215.2988)"><path
             d="m 0,0 c 0,33.881 -27.564,61.445 -61.444,61.445 h -17.558 c -11.004,0 -19.957,8.952 -19.957,19.957 0,11.004 8.953,19.957 19.957,19.957 h 17.558 c 8.042,0 15.263,-4.787 18.397,-12.194 4.463,-10.552 16.639,-15.486 27.185,-11.026 10.552,4.464 15.487,16.635 11.025,27.186 -8.055,19.043 -24.889,32.457 -44.642,36.355 v 15.719 c 0,11.456 -9.287,20.744 -20.744,20.744 -11.457,0 -20.744,-9.288 -20.744,-20.744 v -15.723 c -28.173,-5.583 -49.48,-30.487 -49.48,-60.274 0,-33.881 27.564,-61.444 61.445,-61.444 h 17.558 c 11.005,0 19.957,-8.954 19.957,-19.958 0,-11.004 -8.952,-19.957 -19.957,-19.957 h -17.558 c -8.292,0 -15.596,4.99 -18.607,12.711 -4.163,10.673 -16.189,15.953 -26.863,11.79 -10.673,-4.163 -15.951,-16.19 -11.79,-26.863 7.787,-19.967 24.895,-33.998 45.295,-37.975 v -15.703 c 0,-11.456 9.287,-20.743 20.744,-20.743 11.457,0 20.744,9.287 20.744,20.743 v 15.723 C -21.307,-54.691 0,-29.787 0,0"
             style="fill:#f9efaf;fill-opacity:1;fill-rule:nonzero;stroke:none"
             id="path1838" /></g><g
           id="g1840"
           transform="translate(292.4199,186.8892)"><path
             d="m 0,0 c 4.452,8.501 6.972,18.167 6.972,28.41 0,33.881 -27.564,61.444 -61.445,61.444 H -72.03 c -11.005,0 -19.958,8.953 -19.958,19.958 0,11.004 8.953,19.957 19.958,19.957 h 17.557 c 8.042,0 15.264,-4.787 18.397,-12.195 4.464,-10.552 16.64,-15.486 27.186,-11.025 10.552,4.463 15.487,16.635 11.025,27.185 -8.055,19.044 -24.889,32.457 -44.643,36.356 v 15.719 c 0,11.456 -9.286,20.743 -20.743,20.743 -11.457,0 -20.744,-9.287 -20.744,-20.743 v -15.723 c -28.173,-5.583 -49.48,-30.487 -49.48,-60.274 0,-33.881 27.564,-61.445 61.445,-61.445 h 17.557 c 11.005,0 19.957,-8.953 19.957,-19.957 0,-11.004 -8.952,-19.957 -19.957,-19.957 H -72.03 c -8.293,0 -15.596,4.989 -18.607,12.711 -4.163,10.673 -16.19,15.952 -26.863,11.79 -10.673,-4.163 -15.952,-16.19 -11.79,-26.863 7.787,-19.967 24.894,-33.998 45.295,-37.975 v -15.703 c 0,-11.456 9.287,-20.744 20.744,-20.744 11.457,0 20.743,9.288 20.743,20.744 v 15.723 c 6.442,1.277 12.525,3.563 18.076,6.687"
             style="fill:none;stroke:#000000;stroke-width:15;stroke-linecap:round;stroke-linejoin:round;stroke-miterlimit:10;stroke-dasharray:none;stroke-opacity:1"
             id="path1842" /></g><g
           id="g1844"
           transform="translate(150.6621,463.3647)"><path
             d="m 0,0 c -83.675,-31.695 -143.162,-112.583 -143.162,-207.365 0,-122.424 99.244,-221.668 221.668,-221.668 122.424,0 221.668,99.244 221.668,221.668 0,122.424 -99.244,221.668 -221.668,221.668 -15.469,0 -30.568,-1.584 -45.144,-4.6"
             style="fill:none;stroke:#000000;stroke-width:15;stroke-linecap:round;stroke-linejoin:round;stroke-miterlimit:10;stroke-dasharray:none;stroke-opacity:1"
             id="path1846" /></g><g
           id="g1848"
           transform="translate(410.3218,74.6377)"><path
             d="M 0,0 H -53.664"
             style="fill:none;stroke:#000000;stroke-width:15;stroke-linecap:round;stroke-linejoin:round;stroke-miterlimit:10;stroke-dasharray:none;stroke-opacity:1"
             id="path1850" /></g><g
           id="g1852"
           transform="translate(453.8433,114.9395)"><path
             d="M 0,0 H -53.664"
             style="fill:none;stroke:#000000;stroke-width:15;stroke-linecap:round;stroke-linejoin:round;stroke-miterlimit:10;stroke-dasharray:none;stroke-opacity:1"
             id="path1854" /></g><g
           id="g1856"
           transform="translate(480.3315,155.2407)"><path
             d="M 0,0 H -53.664"
             style="fill:none;stroke:#000000;stroke-width:15;stroke-linecap:round;stroke-linejoin:round;stroke-miterlimit:10;stroke-dasharray:none;stroke-opacity:1"
             id="path1858" /></g><g
           id="g1860"
           transform="translate(496.1519,195.5425)"><path
             d="M 0,0 H -53.664"
             style="fill:none;stroke:#000000;stroke-width:15;stroke-linecap:round;stroke-linejoin:round;stroke-miterlimit:10;stroke-dasharray:none;stroke-opacity:1"
             id="path1862" /></g><g
           id="g1864"
           transform="translate(503.5894,235.8437)"><path
             d="M 0,0 H -53.664"
             style="fill:none;stroke:#000000;stroke-width:15;stroke-linecap:round;stroke-linejoin:round;stroke-miterlimit:10;stroke-dasharray:none;stroke-opacity:1"
             id="path1866" /></g><g
           id="g1868"
           transform="translate(503.5894,276.1562)"><path
             d="M 0,0 H -53.664"
             style="fill:none;stroke:#000000;stroke-width:15;stroke-linecap:round;stroke-linejoin:round;stroke-miterlimit:10;stroke-dasharray:none;stroke-opacity:1"
             id="path1870" /></g><g
           id="g1872"
           transform="translate(496.1519,316.4575)"><path
             d="M 0,0 H -53.664"
             style="fill:none;stroke:#000000;stroke-width:15;stroke-linecap:round;stroke-linejoin:round;stroke-miterlimit:10;stroke-dasharray:none;stroke-opacity:1"
             id="path1874" /></g><g
           id="g1876"
           transform="translate(480.3315,356.7593)"><path
             d="M 0,0 H -53.664"
             style="fill:none;stroke:#000000;stroke-width:15;stroke-linecap:round;stroke-linejoin:round;stroke-miterlimit:10;stroke-dasharray:none;stroke-opacity:1"
             id="path1878" /></g><g
           id="g1880"
           transform="translate(453.8433,397.0605)"><path
             d="M 0,0 H -53.664"
             style="fill:none;stroke:#000000;stroke-width:15;stroke-linecap:round;stroke-linejoin:round;stroke-miterlimit:10;stroke-dasharray:none;stroke-opacity:1"
             id="path1882" /></g><g
           id="g1884"
           transform="translate(410.3218,437.3623)"><path
             d="M 0,0 H -53.664"
             style="fill:none;stroke:#000000;stroke-width:15;stroke-linecap:round;stroke-linejoin:round;stroke-miterlimit:10;stroke-dasharray:none;stroke-opacity:1"
             id="path1886" /></g><g
           id="g1888"
           transform="translate(336.0435,111.2173)"><path
             d="m 0,0 c -29.886,-22.098 -66.854,-35.162 -106.875,-35.162 -99.381,0 -179.945,80.564 -179.945,179.945 0,99.381 80.564,179.945 179.945,179.945 99.38,0 179.945,-80.564 179.945,-179.945 0,-46.729 -17.812,-89.298 -47.017,-121.287"
             style="fill:none;stroke:#000000;stroke-width:15;stroke-linecap:round;stroke-linejoin:round;stroke-miterlimit:10;stroke-dasharray:none;stroke-opacity:1"
             id="path1890" /></g><g
           id="g1892"
           transform="translate(229.168,477.668)"><path
             d="m 0,0 h 53.664 c 122.424,0 221.668,-99.244 221.668,-221.668 0,-122.424 -99.244,-221.668 -221.668,-221.668 H 0"
             style="fill:none;stroke:#000000;stroke-width:15;stroke-linecap:round;stroke-linejoin:round;stroke-miterlimit:10;stroke-dasharray:none;stroke-opacity:1"
             id="path1894" /></g></g></g></g></svg>
