<?xml version="1.0" encoding="iso-8859-1"?>
<!-- Generator: Adobe Illustrator 19.0.0, SVG Export Plug-In . SVG Version: 6.00 Build 0)  -->
<svg version="1.1" id="Layer_1" xmlns="http://www.w3.org/2000/svg" xmlns:xlink="http://www.w3.org/1999/xlink" x="0px" y="0px"
	 viewBox="0 0 512 512" style="enable-background:new 0 0 512 512;" xml:space="preserve">
<g>
	<rect x="7.604" y="116.493" style="fill:#02DEAE;" width="496.792" height="279.025"/>
	<path style="fill:#02DEAE;" d="M423.115,146.904H88.885c-4.295,26.031-24.836,46.571-50.865,50.865v116.459
		c26.031,4.295,46.571,24.836,50.865,50.865h334.23c4.295-26.031,24.836-46.571,50.865-50.865V197.771
		C447.949,193.476,427.41,172.935,423.115,146.904z"/>
	<circle style="fill:#02DEAE;" cx="256" cy="256" r="109.091"/>
</g>
<g>
	<circle style="fill:#FFFFFF;" cx="92.464" cy="256" r="17.743"/>
	<circle style="fill:#FFFFFF;" cx="419.536" cy="256" r="17.743"/>
</g>
<g>
	<polygon style="fill:#002770;" points="0,108.885 0,403.115 143.461,403.115 143.461,387.907 15.208,387.907 15.208,124.093 
		496.792,124.093 496.792,387.907 163.739,387.907 163.739,403.115 512,403.115 512,108.885 	"/>
	<path style="fill:#002770;" d="M429.566,372.7l1.05-6.366c3.779-22.899,21.702-40.823,44.601-44.601l6.366-1.05V191.319
		l-6.366-1.05c-22.899-3.778-40.823-21.702-44.601-44.601l-1.05-6.366H82.434l-1.05,6.366
		c-3.779,22.899-21.702,40.823-44.601,44.601l-6.367,1.05v129.364l6.366,1.05c22.899,3.778,40.823,21.702,44.601,44.601l1.05,6.366
		H429.566z M416.97,154.508c6.347,24.163,25.243,43.06,49.406,49.406v104.169c-24.163,6.347-43.06,25.242-49.406,49.406H313.55
		c35.295-20.092,59.15-58.056,59.15-101.492s-23.855-81.399-59.15-101.492h103.42V154.508z M256,357.492
		c-55.962,0-101.492-45.528-101.492-101.492S200.038,154.508,256,154.508S357.492,200.038,357.492,256S311.962,357.492,256,357.492z
		 M95.03,357.492c-6.347-24.164-25.243-43.061-49.406-49.406v-104.17c24.163-6.347,43.06-25.242,49.406-49.406h103.421
		c-35.295,20.092-59.15,58.056-59.15,101.492s23.855,81.399,59.15,101.492H95.03z"/>
	<path style="fill:#002770;" d="M92.462,230.653c-13.976,0-25.347,11.37-25.347,25.347s11.37,25.347,25.347,25.347
		s25.347-11.37,25.347-25.347S106.438,230.653,92.462,230.653z M92.462,266.139c-5.59,0-10.139-4.548-10.139-10.139
		c0-5.59,4.548-10.139,10.139-10.139c5.59,0,10.139,4.548,10.139,10.139C102.601,261.59,98.053,266.139,92.462,266.139z"/>
	<path style="fill:#002770;" d="M419.538,281.347c13.976,0,25.347-11.37,25.347-25.347s-11.37-25.347-25.347-25.347
		c-13.976,0-25.347,11.37-25.347,25.347S405.562,281.347,419.538,281.347z M419.538,245.861c5.59,0,10.139,4.548,10.139,10.139
		c0,5.59-4.548,10.139-10.139,10.139c-5.59,0-10.139-4.548-10.139-10.139C409.399,250.41,413.947,245.861,419.538,245.861z"/>
</g>
<path style="fill:#FFFFFF;" d="M263.604,248.737v-43.96c15.795,1.672,23.792,8.922,23.792,21.621h15.208
	c0-21.196-14.424-34.616-39-36.866V171.85h-15.208v17.682c-24.577,2.25-39,15.67-39,36.866s14.424,34.616,39,36.867v43.96
	c-15.795-1.672-23.792-8.922-23.792-21.621h-15.208c0,21.196,14.424,34.616,39,36.866v17.682h15.208V322.47
	c24.577-2.25,39-15.67,39-36.866C302.604,264.407,288.181,250.986,263.604,248.737z M224.604,226.397
	c0-12.699,7.998-19.948,23.792-21.621v43.241C232.601,246.346,224.604,239.096,224.604,226.397z M263.604,307.223v-43.241
	c15.795,1.672,23.792,8.922,23.792,21.621C287.396,298.301,279.399,305.551,263.604,307.223z"/>
<g>
</g>
<g>
</g>
<g>
</g>
<g>
</g>
<g>
</g>
<g>
</g>
<g>
</g>
<g>
</g>
<g>
</g>
<g>
</g>
<g>
</g>
<g>
</g>
<g>
</g>
<g>
</g>
<g>
</g>
</svg>
