<?xml version="1.0" encoding="iso-8859-1"?>
<!-- Generator: Adobe Illustrator 19.0.0, SVG Export Plug-In . SVG Version: 6.00 Build 0)  -->
<svg version="1.1" id="Capa_1" xmlns="http://www.w3.org/2000/svg" xmlns:xlink="http://www.w3.org/1999/xlink" x="0px" y="0px"
	 viewBox="0 0 512 512" style="enable-background:new 0 0 512 512;" xml:space="preserve">
<polygon style="fill:#F5F5F5;" points="255.999,215.823 7.499,244.501 7.499,411.281 504.499,411.281 504.499,244.501 "/>
<polygon style="fill:#DBDBDB;" points="47.499,239.885 7.499,244.501 7.499,411.281 47.499,411.281 "/>
<g>
	<path style="fill:#EF5350;" d="M504.499,411.281v28.072c0,16.18-13.114,29.284-29.284,29.284H36.783
		c-16.169,0-29.284-13.104-29.284-29.284v-28.072H504.499z"/>
	<path style="fill:#EF5350;" d="M504.499,216.429v28.072h-497v-28.072c0-16.18,13.114-29.284,29.284-29.284h438.433
		C491.385,187.145,504.499,200.249,504.499,216.429z"/>
</g>
<g>
	<path style="fill:#D44A47;" d="M36.783,468.637h40c-16.169,0-29.284-13.104-29.284-29.284v-28.072h-40v28.072
		C7.499,455.533,20.614,468.637,36.783,468.637z"/>
	<path style="fill:#D44A47;" d="M47.499,216.429c0-16.18,13.114-29.284,29.284-29.284h-40c-16.169,0-29.284,13.104-29.284,29.284
		v28.072h40C47.499,244.501,47.499,216.429,47.499,216.429z"/>
</g>
<circle style="fill:#2C3940;" cx="256" cy="69.3" r="25.941"/>
<path d="M36.783,179.645C16.501,179.645,0,196.146,0,216.429v222.924c0,20.283,16.501,36.784,36.783,36.784h438.433
	c20.283,0,36.784-16.501,36.784-36.784V216.429c0-20.283-16.501-36.784-36.784-36.784h-35.141L287.428,80.733
	c1.301-3.568,2.013-7.417,2.013-11.429c0-18.439-15.001-33.441-33.441-33.441s-33.441,15.001-33.441,33.441
	c0,4.012,0.711,7.861,2.013,11.429L71.925,179.645H36.783z M497,439.353c0,12.012-9.772,21.784-21.784,21.784H36.783
	c-12.011,0-21.783-9.772-21.783-21.784v-20.572h482V439.353z M497,216.429v20.572H380.548c-4.142,0-7.5,3.358-7.5,7.5
	s3.358,7.5,7.5,7.5H497V403.78H15V252.001h335.548c4.142,0,7.5-3.358,7.5-7.5s-3.358-7.5-7.5-7.5H15v-20.572
	c0-12.012,9.772-21.784,21.783-21.784h438.433C487.228,194.645,497,204.417,497,216.429z M256,50.863
	c10.168,0,18.441,8.273,18.441,18.441c0,10.169-8.272,18.441-18.441,18.441s-18.441-8.272-18.441-18.441
	C237.559,59.136,245.832,50.863,256,50.863z M232.75,93.307c6.023,5.836,14.221,9.438,23.25,9.438c9.029,0,17.227-3.603,23.25-9.438
	l133.241,86.338H99.509L232.75,93.307z"/>
<path d="M79.762,348.777V311.39c0-22.378,13.668-30.687,31.356-30.687s31.491,8.309,31.491,30.687v37.387
	c0,22.379-13.802,30.687-31.491,30.687S79.762,371.156,79.762,348.777z M125.188,311.391c0-10.586-5.36-15.41-14.07-15.41
	c-8.844,0-13.936,4.824-13.936,15.41v37.387c0,10.586,5.092,15.41,13.936,15.41c8.71,0,14.07-4.824,14.07-15.41V311.391z"/>
<path d="M176.24,286.064c0-2.814,2.546-5.36,6.566-5.36h26.935c17.018,0,30.418,8.175,30.418,30.15v0.805
	c0,21.976-13.803,30.418-31.491,30.418H193.66v31.089c0,3.618-4.422,5.494-8.71,5.494c-4.422,0-8.71-1.876-8.71-5.494
	L176.24,286.064L176.24,286.064z M193.661,295.98v32.429h15.008c8.71,0,14.071-4.958,14.071-15.41v-1.608
	c0-10.452-5.36-15.41-14.071-15.41L193.661,295.98L193.661,295.98z"/>
<path d="M287.059,322.781h20.368c3.484,0,5.494,3.35,5.494,6.968c0,3.082-1.742,6.7-5.494,6.7h-20.368v26.935h37.922
	c3.484,0,5.494,3.618,5.494,7.772c0,3.618-1.741,7.504-5.494,7.504h-47.704c-3.887,0-7.639-1.876-7.639-5.494v-86.968
	c0-3.618,3.752-5.494,7.639-5.494h47.704c3.753,0,5.494,3.887,5.494,7.505c0,4.153-2.01,7.771-5.494,7.771h-37.922V322.781z"/>
<path d="M405.649,373.166l-28.811-53.869v53.869c0,3.618-4.423,5.494-8.711,5.494c-4.422,0-8.71-1.876-8.71-5.494v-86.968
	c0-3.752,4.288-5.494,8.71-5.494c6.299,0,8.845,1.341,12.999,9.246l25.862,49.983v-53.869c0-3.752,4.288-5.36,8.71-5.36
	c4.288,0,8.71,1.608,8.71,5.36v87.102c0,3.618-4.422,5.494-8.71,5.494C411.545,378.66,407.927,377.32,405.649,373.166z"/>
<g>
</g>
<g>
</g>
<g>
</g>
<g>
</g>
<g>
</g>
<g>
</g>
<g>
</g>
<g>
</g>
<g>
</g>
<g>
</g>
<g>
</g>
<g>
</g>
<g>
</g>
<g>
</g>
<g>
</g>
</svg>
