<?xml version="1.0" encoding="iso-8859-1"?>
<!-- Generator: Adobe Illustrator 19.0.0, SVG Export Plug-In . SVG Version: 6.00 Build 0)  -->
<svg version="1.1" id="Capa_1" xmlns="http://www.w3.org/2000/svg" xmlns:xlink="http://www.w3.org/1999/xlink" x="0px" y="0px"
	 viewBox="0 0 512 512" style="enable-background:new 0 0 512 512;" xml:space="preserve">
<path style="fill:#656769;" d="M406.627,62.127L157.726,311.029c-12.497,12.497-32.758,12.497-45.255,0l0,0
	c-12.497-12.497-12.497-32.758,0-45.255L361.372,16.873c12.497-12.497,32.758-12.497,45.255,0l0,0
	C419.124,29.369,419.124,49.631,406.627,62.127z"/>
<polygon style="fill:#FFFFFF;" points="304,74.24 304,164.76 272,196.76 272,106.24 "/>
<path style="fill:#50DBD9;" d="M416,39.5c0,8.19-3.12,16.38-9.37,22.63L304,164.76V74.24l57.37-57.37
	c12.5-12.49,32.76-12.49,45.26,0C412.88,23.12,416,31.31,416,39.5z"/>
<path style="fill:#656769;" d="M399.529,246.226L150.627,495.127c-12.497,12.497-32.758,12.497-45.255,0l0,0
	c-12.497-12.497-12.497-32.758,0-45.255L354.273,200.97c12.497-12.497,32.758-12.497,45.255,0l0,0
	C412.026,213.468,412.026,233.729,399.529,246.226z"/>
<polygon style="fill:#FFFFFF;" points="297,258.24 297,348.76 265,380.76 265,290.24 "/>
<path style="fill:#50DBD9;" d="M408.902,223.596c0,8.19-3.071,16.38-9.321,22.63L297,348.856v-90.52l57.321-57.37
	c12.5-12.49,32.735-12.49,45.235,0C405.806,207.216,408.902,215.406,408.902,223.596z"/>
<path d="M71.58,243.028L277.303,37.303l-10.607-10.606l-205.72,205.72C46.374,220.6,30.4,217.741,22.011,226.128
	c-8.387,8.387-5.527,24.361,6.289,38.965l-17.603,17.603l10.607,10.606l17.603-17.604c8.932,7.227,18.375,11.11,26.282,11.11
	c5.022,0,9.425-1.563,12.682-4.819c5.137-5.136,6.268-13.057,3.186-22.303C79.214,254.16,75.926,248.413,71.58,243.028z
	 M67.266,271.383L67.266,271.383c-1.544,1.546-11.97,0.052-23.335-11.314c-11.367-11.368-12.858-21.79-11.314-23.334
	c0.319-0.319,1.017-0.509,2.022-0.509c3.04,0,8.903,1.748,15.655,6.874l-5.656,5.656l10.607,10.606l5.644-5.644
	c2.722,3.596,4.801,7.305,5.937,10.712C68.223,268.619,67.725,270.923,67.266,271.383z"/>
<path d="M295.579,451.028l205.724-205.725l-10.607-10.606l-205.72,205.72c-14.603-11.816-30.577-14.677-38.966-6.289
	c-8.387,8.387-5.527,24.362,6.289,38.965l-17.603,17.603l10.607,10.606l17.603-17.604c8.932,7.227,18.375,11.11,26.283,11.11
	c5.022,0,9.425-1.563,12.682-4.819c5.137-5.136,6.268-13.057,3.186-22.303C303.214,462.16,299.926,456.413,295.579,451.028z
	 M291.266,479.383h-0.001c-1.544,1.547-11.969,0.052-23.334-11.314c-11.367-11.368-12.858-21.79-11.314-23.334
	c0.319-0.319,1.017-0.509,2.022-0.509c3.04,0,8.904,1.747,15.655,6.874l-5.656,5.656l10.607,10.606l5.644-5.644
	c2.722,3.596,4.802,7.305,5.937,10.712C292.223,476.619,291.725,478.923,291.266,479.383z"/>
<path d="M107.167,316.332c7.461,7.461,17.381,11.569,27.932,11.569s20.47-4.108,27.931-11.569L411.931,67.431h-0.001
	c7.461-7.461,11.57-17.38,11.57-27.931s-4.109-20.47-11.569-27.931C404.47,4.109,394.551,0,384,0s-20.47,4.109-27.931,11.569
	L107.167,260.471C91.767,275.872,91.767,300.931,107.167,316.332z M279,178.648v-69.296l17-17v69.296L279,178.648z M366.427,22.176
	C371.053,17.548,377.331,15,383.875,15s12.759,2.548,17.387,7.176c4.627,4.627,7.207,10.78,7.207,17.324s-2.783,12.697-7.41,17.324
	L311,146.648V77.352L366.427,22.176z M117.524,271.078L264,124.352v69.296L152.172,305.726c-4.627,4.627-10.654,7.176-17.198,7.176
	c-6.544,0-12.76-2.548-17.387-7.176C108.034,296.173,107.972,280.63,117.524,271.078z"/>
<path d="M404.833,195.668c-7.461-7.461-17.381-11.569-27.932-11.569s-20.47,4.108-27.931,11.569l-248.9,248.901
	c-7.461,7.46-11.57,17.38-11.57,27.931s4.109,20.47,11.569,27.931C107.53,507.891,117.449,512,128,512s20.47-4.109,27.931-11.569
	l248.902-248.902C420.233,236.128,420.233,211.069,404.833,195.668z M289,276.353v69.295l-17,17v-69.295L289,276.353z
	 M145.073,489.824c-4.627,4.628-10.654,7.176-17.198,7.176s-12.634-2.548-17.262-7.176c-4.627-4.627-7.144-10.78-7.144-17.324
	s2.314-12.697,6.942-17.324L257,308.353v69.295L145.073,489.824z M393.976,240.922L304,330.648v-69.295l55.328-55.078
	c4.627-4.627,10.904-7.176,17.448-7.176s12.635,2.548,17.262,7.176C403.591,215.827,403.528,231.37,393.976,240.922z"/>
<g>
	
		<rect x="370.825" y="34.343" transform="matrix(-0.7071 -0.7071 0.7071 -0.7071 615.9005 339.8)" style="fill:#FFFFFF;" width="15" height="16"/>
	
		<rect x="366.132" y="221.658" transform="matrix(-0.7071 -0.7071 0.7071 -0.7071 475.4371 656.2476)" style="fill:#FFFFFF;" width="15" height="16"/>
</g>
<g>
</g>
<g>
</g>
<g>
</g>
<g>
</g>
<g>
</g>
<g>
</g>
<g>
</g>
<g>
</g>
<g>
</g>
<g>
</g>
<g>
</g>
<g>
</g>
<g>
</g>
<g>
</g>
<g>
</g>
</svg>
