<svg xmlns="http://www.w3.org/2000/svg" version="1.1" xmlns:xlink="http://www.w3.org/1999/xlink" xmlns:svgjs="http://svgjs.com/svgjs" width="512" height="512" x="0" y="0" viewBox="0 0 60 60" style="enable-background:new 0 0 512 512" xml:space="preserve" class=""><g><g fill-rule="evenodd" clip-rule="evenodd"><path fill="#282828" d="M29.808 8c-6.564 0-11.885 5.32-11.885 11.885 0 2.083.535 4.037 1.473 5.736l9.974 18.06a.5.5 0 0 0 .875 0l9.974-18.06a11.825 11.825 0 0 0 1.473-5.736C41.692 13.32 36.372 8 29.808 8zM14.923 19.885C14.923 11.665 21.587 5 29.808 5c8.22 0 14.884 6.664 14.884 14.885 0 2.603-.67 5.054-1.847 7.186l-9.973 18.06c-1.332 2.411-4.797 2.411-6.128 0l-9.974-18.06a14.824 14.824 0 0 1-1.847-7.186zm14.885-3.577a3.577 3.577 0 1 0 0 7.154 3.577 3.577 0 0 0 0-7.154zm-6.577 3.577a6.577 6.577 0 1 1 13.154 0 6.577 6.577 0 0 1-13.154 0zM19.9 44.258a1.5 1.5 0 1 0-1.415-2.646C16.028 42.927 14 44.947 14 47.578c0 2.812 2.308 4.925 5.037 6.245C21.871 55.194 25.681 56 29.807 56c4.127 0 7.937-.806 10.771-2.178 2.73-1.32 5.037-3.433 5.037-6.245 0-2.63-2.028-4.65-4.484-5.965a1.5 1.5 0 1 0-1.416 2.646c2.133 1.14 2.9 2.377 2.9 3.319 0 1.011-.895 2.36-3.344 3.545C36.927 52.256 33.583 53 29.808 53s-7.12-.744-9.464-1.878C17.895 49.937 17 48.588 17 47.577c0-.942.767-2.178 2.9-3.32z" data-original="#282828" class=""></path><path fill="#ffd852" d="M17.923 19.885C17.923 13.32 23.244 8 29.808 8s11.884 5.32 11.884 11.885c0 2.083-.534 4.037-1.473 5.736l-9.974 18.06a.5.5 0 0 1-.875 0l-9.974-18.06a11.825 11.825 0 0 1-1.473-5.736zm5.308 0a6.577 6.577 0 1 1 13.154 0 6.577 6.577 0 0 1-13.154 0z" data-original="#ffecaa" class=""></path></g></g></svg>